<?xml version="1.0" encoding="UTF-8"?> <svg xmlns="http://www.w3.org/2000/svg" width="48" height="48" viewBox="0 0 48 48" fill="none"><g clip-path="url(#clip0)"><path d="M44.9202 39.9397L38.9693 28.0367C40.9172 25.1638 42.0564 21.7002 42.0564 17.9751C42.0564 8.0636 33.9929 0 24.0814 0C14.1699 0 6.10626 8.0636 6.10626 17.9751C6.10626 21.7002 7.24554 25.1642 9.19378 28.0375L3.24212 39.9397C3.02422 40.3759 3.04766 40.8933 3.30364 41.3079C3.55999 41.7224 4.01263 41.9751 4.50005 41.9751H11.3281L15.4249 47.4375C15.6922 47.7935 16.1097 48 16.5499 48C17.1332 48 17.5928 47.6521 17.8078 47.2225L23.4504 35.9377C23.6598 35.9451 23.87 35.9502 24.0814 35.9502C24.2927 35.9502 24.5029 35.9451 24.7123 35.9377L30.3549 47.2225C30.5691 47.6514 31.0291 48 31.6128 48C32.0527 48 32.4705 47.7935 32.7375 47.4375L36.8346 41.9751H43.6627C44.1501 41.9751 44.6027 41.7224 44.8587 41.3079C45.115 40.8933 45.1385 40.3759 44.9202 39.9397ZM16.31 43.9296L13.1562 39.7251C12.8907 39.371 12.4739 39.1626 12.0312 39.1626H6.77532L11.1391 30.4358C13.6169 33.0081 16.8513 34.8468 20.4808 35.5876L16.31 43.9296ZM8.91876 17.9751C8.91876 9.6145 15.7208 2.8125 24.0814 2.8125C32.4419 2.8125 39.2439 9.6145 39.2439 17.9751C39.2439 26.3357 32.4419 33.1377 24.0814 33.1377C15.7208 33.1377 8.91876 26.3357 8.91876 17.9751ZM36.1312 39.1626C35.6888 39.1626 35.272 39.371 35.0062 39.7251L31.8527 43.9296L27.6816 35.5876C31.3115 34.8464 34.5462 33.0081 37.024 30.4351L41.387 39.1622H36.1312V39.1626Z" fill="white"></path><path d="M31.2602 20.3075L35.1875 15.62C35.4987 15.2487 35.5969 14.7433 35.4471 14.2826C35.2973 13.8215 34.9209 13.4703 34.451 13.3528L28.5188 11.8689L25.2738 6.68518C25.0167 6.27429 24.5662 6.0249 24.0817 6.0249C23.5973 6.0249 23.1468 6.27429 22.8897 6.68518L19.6455 11.8689L13.7136 13.3528C13.2434 13.4703 12.8669 13.8215 12.7171 14.2822C12.5677 14.7433 12.6655 15.2487 12.9768 15.62L16.904 20.3075L16.4814 26.4075C16.4481 26.8909 16.6656 27.3574 17.0575 27.6423C17.6526 28.0748 18.2579 27.8701 18.4099 27.809L24.0817 25.5231L29.7536 27.8093C30.203 27.9902 30.7138 27.9272 31.1057 27.6427C31.4979 27.3578 31.7154 26.8912 31.6821 26.4078L31.2602 20.3075ZM28.7403 18.9357C28.5067 19.2147 28.3902 19.5729 28.4155 19.9358L28.7213 24.3607L24.6076 22.7025C24.1517 22.5187 23.7518 22.6234 23.5562 22.7025L19.4426 24.3607L19.7491 19.9362C19.774 19.5732 19.6576 19.2147 19.4239 18.9357L16.5755 15.5361L20.8781 14.4598C21.2312 14.3716 21.5359 14.15 21.7288 13.8417L24.0821 10.0818L26.4358 13.8417C26.6287 14.15 26.9334 14.3716 27.2865 14.4598L31.5891 15.5361L28.7403 18.9357Z" fill="white"></path></g><defs><clipPath id="clip0"><rect width="48" height="48" fill="white"></rect></clipPath></defs></svg> 