<?xml version="1.0" encoding="UTF-8"?> <svg xmlns="http://www.w3.org/2000/svg" width="40" height="40" viewBox="0 0 40 40" fill="none"><path d="M6.25884 31.6875C6.53227 31.875 7.58696 32.3984 8.47759 31.2734L14.5088 22.4609L20.8917 28.6172C21.2276 28.9375 21.6885 29.1094 22.1573 29.0547C22.6182 29.0078 23.0401 28.7656 23.3135 28.3828L33.8995 13.2031L34.2823 18.2812C34.376 19.5703 35.587 19.7812 35.9932 19.75C36.8682 19.6797 37.5323 18.9219 37.462 18.039L36.7901 9.10936C36.7276 8.23436 35.962 7.57029 35.0792 7.64061L26.1495 8.31248C25.2745 8.37498 24.6104 9.14061 24.6807 10.0234C24.7432 10.8984 25.501 11.5547 26.3917 11.4922L31.4698 11.1094L21.7667 25.0156L15.3682 18.8437C15.0323 18.5156 14.5635 18.3515 14.1026 18.4062C13.6338 18.4531 13.212 18.7031 12.9463 19.0937L5.84477 29.4687C5.34477 30.1953 5.53227 31.1875 6.25884 31.6875Z" fill="white"></path><path d="M37.5469 35.9531H4.04688V2.45312C4.04688 1.57031 3.33594 0.859375 2.45312 0.859375C1.57031 0.859375 0.859375 1.57031 0.859375 2.45312V37.5469C0.859375 38.4297 1.57031 39.1406 2.45312 39.1406H37.5469C38.4297 39.1406 39.1406 38.4297 39.1406 37.5469C39.1406 36.6641 38.4297 35.9531 37.5469 35.9531Z" fill="white"></path></svg> 