<?xml version="1.0" encoding="UTF-8"?> <svg xmlns="http://www.w3.org/2000/svg" width="35" height="45" viewBox="0 0 35 45" fill="none"><path d="M31.4984 31.6406H22.7734C22.2595 31.6406 21.8134 31.345 21.5961 30.915C25.8144 29.3689 28.7958 25.5563 29.2912 21.0938H32.002V9.22852C32.002 4.13991 27.862 0 22.7734 0H17.5C15.7812 0 14.3149 1.10206 13.7708 2.63672H12.2266C8.59185 2.63672 5.63477 5.5938 5.63477 9.22852V13.1836H0.361328V26.3672H7.63305C9.00265 28.4186 11.0022 30.0347 13.404 30.915C13.1866 31.345 12.7405 31.6406 12.2266 31.6406H3.50157L0.361328 37.9216V45H34.6387V37.9216L31.4984 31.6406ZM2.99805 23.7305V15.8203H5.63477V19.7754C5.63477 21.1534 5.87295 22.4862 6.31231 23.7305H2.99805ZM10.9082 42.3633H2.99805V38.544L5.13124 34.2773H10.9082V42.3633ZM8.27148 9.22852C8.27148 7.04769 10.0457 5.27344 12.2266 5.27344H16.1816V3.95508C16.1816 3.22813 16.7731 2.63672 17.5 2.63672H22.7734C26.4082 2.63672 29.3652 5.5938 29.3652 9.22852V18.457H22.7734C19.8145 18.457 17.2006 16.4673 16.417 13.6185C15.9116 11.7813 14.3656 10.5469 12.57 10.5469H8.27148V9.22852ZM11.0382 26.3672H16.1816V23.7305H9.1612C8.58903 22.5231 8.27148 21.1795 8.27148 19.7754V14.502C8.27148 14.0593 8.30392 13.6187 8.36606 13.1836H12.5699C13.3027 13.1836 13.7307 13.7945 13.8747 14.3177C14.9721 18.3074 18.6314 21.085 22.7734 21.085H26.6327C26.1098 24.7292 23.451 27.7755 19.8081 28.7132L18.8184 28.9679V30.3223C18.8184 31.7154 19.543 32.9418 20.6346 33.6465C19.8302 34.0474 18.6881 34.2773 17.5 34.2773C16.3119 34.2773 15.1698 34.0474 14.3654 33.6465C15.457 32.9418 16.1816 31.7154 16.1816 30.3223V28.9679L15.1919 28.7132C13.5817 28.2988 12.1648 27.473 11.0382 26.3672ZM32.002 42.3633H13.5449V36.1699C14.6649 36.651 16.0514 36.9141 17.5 36.9141C19.7674 36.9141 22.7182 36.1949 23.7542 34.2773H29.8688L32.002 38.544V42.3633Z" fill="white"></path></svg> 