<?xml version="1.0" encoding="UTF-8"?> <svg xmlns="http://www.w3.org/2000/svg" width="44" height="44" viewBox="0 0 44 44" fill="none"><path d="M39.2915 31.3491C39.8227 30.5385 40.1328 29.5707 40.1328 28.5312C40.1328 25.6881 37.8197 23.375 34.9766 23.375C34.5004 23.375 34.0397 23.4413 33.6016 23.5626V20.5814C36.5398 19.9825 38.7578 17.3781 38.7578 14.2656V9.02344C38.7578 5.46949 35.8664 2.57812 32.3125 2.57812H27.1527C25.9756 1.01372 24.1041 0 22 0H11.6875C8.13355 0 5.24219 2.89137 5.24219 6.44531V14.2656C5.24219 17.3782 7.46023 19.9825 10.3984 20.5814V23.5626C9.96033 23.4412 9.49962 23.375 9.02344 23.375C6.18028 23.375 3.86719 25.6881 3.86719 28.5312C3.86719 29.5707 4.17734 30.5385 4.70852 31.3491C1.99581 32.1093 0 34.6025 0 37.5547V42.7109C0 43.4228 0.577156 44 1.28906 44H16.7578C17.4697 44 18.0469 43.4228 18.0469 42.7109V37.5547C18.0469 34.6025 16.0511 32.1093 13.3384 31.3491C13.8695 30.5385 14.1797 29.5707 14.1797 28.5312C14.1797 27.2453 13.7054 26.0688 12.924 25.1646L17.3777 20.7109H22H26.6223L31.076 25.1646C30.2946 26.0688 29.8203 27.2453 29.8203 28.5312C29.8203 29.5707 30.1305 30.5385 30.6616 31.3491C27.9489 32.1093 25.9531 34.6025 25.9531 37.5547V42.7109C25.9531 43.4228 26.5303 44 27.2422 44H42.7109C43.4228 44 44 43.4228 44 42.7109V37.5547C44 34.6025 42.0042 32.1093 39.2915 31.3491ZM9.02344 25.9531C10.445 25.9531 11.6016 27.1097 11.6016 28.5312C11.6016 29.9528 10.445 31.1094 9.02344 31.1094C7.60186 31.1094 6.44531 29.9528 6.44531 28.5312C6.44531 27.1097 7.60186 25.9531 9.02344 25.9531ZM15.4688 37.5547V41.4219H2.57812V37.5547C2.57812 35.4223 4.31295 33.6875 6.44531 33.6875H11.6016C13.7339 33.6875 15.4688 35.4223 15.4688 37.5547ZM25.8672 14.2656C25.8672 16.398 24.1324 18.1328 22 18.1328H16.8438C16.5018 18.1328 16.174 18.2686 15.9323 18.5103L12.9766 21.4661V19.4219C12.9766 18.71 12.3994 18.1328 11.6875 18.1328C9.55513 18.1328 7.82031 16.398 7.82031 14.2656V6.44531C7.82031 4.31295 9.55513 2.57812 11.6875 2.57812H22C24.1324 2.57812 25.8672 4.31295 25.8672 6.44531V14.2656ZM34.9766 25.9531C36.3981 25.9531 37.5547 27.1097 37.5547 28.5312C37.5547 29.9528 36.3981 31.1094 34.9766 31.1094C33.555 31.1094 32.3984 29.9528 32.3984 28.5312C32.3984 27.1097 33.555 25.9531 34.9766 25.9531ZM31.0234 19.4219V21.4661L28.0677 18.5103C27.826 18.2686 27.4982 18.1328 27.1562 18.1328H27.1527C27.9638 17.0548 28.4453 15.7155 28.4453 14.2656V6.44531C28.4453 6.00394 28.4005 5.57288 28.3156 5.15625H32.3125C34.4449 5.15625 36.1797 6.89107 36.1797 9.02344V14.2656C36.1797 16.398 34.4449 18.1328 32.3125 18.1328C31.6006 18.1328 31.0234 18.71 31.0234 19.4219ZM41.4219 41.4219H28.5312V37.5547C28.5312 35.4223 30.2661 33.6875 32.3984 33.6875H37.5547C39.6871 33.6875 41.4219 35.4223 41.4219 37.5547V41.4219Z" fill="white"></path></svg> 