<?xml version="1.0" encoding="UTF-8"?> <svg xmlns="http://www.w3.org/2000/svg" width="43" height="36" viewBox="0 0 43 36" fill="none"><path d="M39.6436 5.09114H30.5787V3.46909C30.5787 1.55627 29.0227 0 27.1097 0H15.8903C13.9776 0 12.4213 1.55615 12.4213 3.46909V5.09114H3.35653C1.50573 5.09114 0 6.59675 0 8.44744V32.0533C0 33.9039 1.50573 35.4097 3.35653 35.4097H39.6435C41.4943 35.4097 43 33.9039 43 32.0533V8.44744C43.0001 6.59687 41.4945 5.09114 39.6436 5.09114ZM15.3527 3.46909C15.3527 3.17257 15.594 2.93126 15.8904 2.93126H27.1099C27.4063 2.93126 27.6476 3.17257 27.6476 3.46909V5.09114H15.3527V3.46909ZM3.35665 8.0224H39.6436C39.8781 8.0224 40.0689 8.21305 40.0689 8.44744V16.1388C35.5268 17.8237 28.6757 18.819 21.4877 18.819C14.3155 18.819 7.47379 17.8271 2.93126 16.1479V8.44744C2.93138 8.21305 3.12215 8.0224 3.35665 8.0224ZM39.6436 32.4784H3.35665C3.12215 32.4784 2.93138 32.2878 2.93138 32.0533V19.2534C7.08885 20.6248 12.555 21.4821 18.5119 21.6969C18.5115 21.7139 18.5094 21.7303 18.5094 21.7475V22.3939C18.5094 23.6057 19.4953 24.5915 20.7072 24.5915H22.2932C23.5051 24.5915 24.4909 23.6057 24.4909 22.3939V21.7475C24.4909 21.7303 24.4886 21.7134 24.4885 21.6962C30.4492 21.4795 35.9144 20.6198 40.0691 19.2456V32.0534C40.0689 32.2878 39.8781 32.4784 39.6436 32.4784Z" fill="white"></path></svg> 