<svg width="23" height="23" viewBox="0 0 23 23" fill="none" xmlns="http://www.w3.org/2000/svg">
<path d="M15.439 2.5907C11.9671 -0.81018 6.3164 -0.81018 2.84454 2.5907C-0.626566 5.99231 -0.626566 11.5268 2.84454 14.9284C5.93632 17.9562 10.7516 18.2806 14.2212 15.9163C14.2942 16.2547 14.4613 16.5776 14.73 16.8408L19.7861 21.7935C20.5229 22.5138 21.7136 22.5138 22.4467 21.7935C23.1827 21.0725 23.1827 19.9062 22.4467 19.1874L17.3905 14.2332C17.1233 13.9722 16.7929 13.8078 16.4475 13.7363C18.8627 10.3369 18.5315 5.62075 15.439 2.5907ZM13.8427 13.3647C11.2506 15.9037 7.03215 15.9037 4.44086 13.3647C1.85032 10.8256 1.85032 6.69416 4.44086 4.15512C7.03215 1.61681 11.2506 1.61681 13.8427 4.15512C16.4347 6.69416 16.4347 10.8256 13.8427 13.3647Z" fill="white"/>
</svg>
