<svg width="25" height="25" viewBox="0 0 25 25" fill="none" xmlns="http://www.w3.org/2000/svg">
<g clip-path="url(#clip0)">
<path d="M24.6862 11.7364L13.3887 0.847876C13.1514 0.619198 12.8357 0.49321 12.5002 0.49321C12.1644 0.49321 11.8488 0.619085 11.6116 0.847876L0.313973 11.7364C-0.0644429 12.1011 -0.0202227 12.4146 0.0397176 12.5634C0.0997711 12.7121 0.278914 12.9711 0.804353 12.9711H2.07645V22.6486C2.07645 23.6559 2.94456 24.5068 3.92759 24.5068H9.65382V17.9473H15.1955V24.5068H21.0725C22.0586 24.5068 22.8859 23.6385 22.8859 22.6486V12.9711H24.1957C24.7211 12.9711 24.9002 12.7121 24.9603 12.5634C25.0203 12.4146 25.0646 12.1012 24.6862 11.7364Z" fill="white"/>
</g>
<defs>
<clipPath id="clip0">
<rect width="25" height="25" fill="white"/>
</clipPath>
</defs>
</svg>
