<svg width="26" height="20" viewBox="0 0 26 20" fill="none" xmlns="http://www.w3.org/2000/svg">
<path d="M25.9967 10.0961C25.9561 9.63821 25.5559 9.30244 25.0944 9.34078C25.0021 9.34845 15.8199 10.1304 10.3536 7.68408C5.57677 5.54606 1.01997 5.56947 0.820753 5.57897C0.361939 5.58481 -0.00577129 5.96115 6.86091e-05 6.42037C0.00550226 6.87604 0.376818 7.24243 0.832026 7.24243C0.835175 7.24243 0.838323 7.24243 0.841471 7.24243C0.889257 7.25187 5.24598 7.2208 9.6748 9.20245C13.2793 10.8163 18.1941 11.1368 21.5332 11.1368C23.6194 11.1368 25.0913 11.012 25.2413 10.9984C25.6993 10.9578 26.0373 10.554 25.9967 10.0961Z" fill="#7B7B7B"/>
<path d="M24.1035 11.5671C23.6573 11.4598 23.2075 11.7352 23.1003 12.1818C22.7519 13.6316 21.5882 17.0041 18.3028 17.0041H8.3562C7.43756 17.0041 6.36733 16.5423 5.40192 15.6421C5.30376 15.5294 5.19691 15.4216 5.08154 15.3204C5.07854 15.3177 5.07529 15.3156 5.07225 15.313C3.75486 13.9065 2.70292 11.6395 2.62802 8.57324C2.61629 8.11356 2.22735 7.74671 1.7758 7.76154C1.31612 7.77327 0.953286 8.15409 0.964103 8.61376C1.05378 12.2812 2.41682 15.123 4.22566 16.8356C4.44661 17.137 4.52639 17.4585 4.47353 17.599C4.44966 17.6621 4.27568 17.7271 3.98948 17.7271C3.5298 17.7271 3.15752 18.0993 3.15752 18.559C3.15752 19.0187 3.5298 19.391 3.98948 19.391C5.42172 19.391 5.89405 18.5482 6.03014 18.1854C6.03893 18.1621 6.04695 18.1383 6.05477 18.1146C6.81045 18.4779 7.59203 18.6681 8.35564 18.6681H18.3023C19.2022 18.6681 20.0428 18.4758 20.8053 18.1101C20.8266 18.1806 20.8519 18.2502 20.8824 18.3184C21.0618 18.719 21.5557 19.391 22.847 19.391C23.3066 19.391 23.6785 19.0187 23.6785 18.559C23.6785 18.0993 23.3062 17.7271 22.8465 17.7271C22.5387 17.7271 22.4175 17.659 22.4021 17.641C22.3408 17.5482 22.4215 16.9911 22.9132 16.4395C22.9567 16.3908 22.9926 16.3382 23.0225 16.2833C23.7813 15.3074 24.3618 14.0554 24.7182 12.5704C24.8259 12.1232 24.5501 11.6739 24.1035 11.5671Z" fill="#7B7B7B"/>
<path d="M2.41956 5.1823C2.87923 5.1823 3.25014 4.82399 3.25014 4.36431C3.5007 3.51432 7.82862 2.05455 8.87193 2.27271C9.30551 2.58548 9.34471 3.14971 9.34603 3.16413C9.36183 3.62381 9.75483 3.9835 10.2059 3.96679C10.6651 3.951 11.0244 3.56612 11.0086 3.1069C10.9896 2.55663 10.6967 1.45965 9.71735 0.836808C8.58299 0.116164 5.00054 1.25957 3.42762 2.12351C2.19007 2.80313 1.58887 3.52692 1.58887 4.33679C1.58892 4.79651 1.95983 5.1823 2.41956 5.1823Z" fill="#7B7B7B"/>
<path d="M10.1481 4.48596C9.52482 4.48596 9.02051 4.99205 9.02051 5.61266C9.02051 6.23595 9.52482 6.73844 10.1481 6.73844C10.77 6.73844 11.2739 6.23595 11.2739 5.61266C11.2739 4.99205 10.77 4.48596 10.1481 4.48596Z" fill="#7B7B7B"/>
</svg>
