<svg width="19" height="19" viewBox="0 0 19 19" fill="none" xmlns="http://www.w3.org/2000/svg">
<path d="M14.3057 8.84637C14.6924 8.84637 15.0059 8.53287 15.0059 8.14615C15.0059 7.75942 14.6924 7.44592 14.3057 7.44592C13.919 7.44592 13.6055 7.75942 13.6055 8.14615C13.6055 8.53287 13.919 8.84637 14.3057 8.84637Z" fill="white"/>
<path d="M15.9178 2.19427H15.0075V1.49405C15.0075 1.10731 14.694 0.793823 14.3073 0.793823C13.9206 0.793823 13.6071 1.10731 13.6071 1.49405V2.19427H10.421V1.49405C10.421 1.10731 10.1076 0.793823 9.72082 0.793823C9.33409 0.793823 9.0206 1.10731 9.0206 1.49405V2.19427H5.86959V1.49405C5.86959 1.10731 5.5561 0.793823 5.16937 0.793823C4.78263 0.793823 4.46914 1.10731 4.46914 1.49405V2.19427H3.59386C2.04945 2.19427 0.792969 3.45075 0.792969 4.99517V15.9187C0.792969 17.4631 2.04945 18.7196 3.59386 18.7196H8.95058C9.33731 18.7196 9.6508 18.4061 9.6508 18.0193C9.6508 17.6326 9.33731 17.3191 8.95058 17.3191H3.59386C2.82166 17.3191 2.19342 16.6909 2.19342 15.9187V4.99517C2.19342 4.22296 2.82166 3.59472 3.59386 3.59472H4.46914V4.29494C4.46914 4.68168 4.78263 4.99517 5.16937 4.99517C5.5561 4.99517 5.86959 4.68168 5.86959 4.29494V3.59472H9.0206V4.29494C9.0206 4.68168 9.33409 4.99517 9.72082 4.99517C10.1076 4.99517 10.421 4.68168 10.421 4.29494V3.59472H13.6071V4.29494C13.6071 4.68168 13.9206 4.99517 14.3073 4.99517C14.694 4.99517 15.0075 4.68168 15.0075 4.29494V3.59472H15.9178C16.69 3.59472 17.3183 4.22296 17.3183 4.99517V8.98644C17.3183 9.37318 17.6317 9.68667 18.0185 9.68667C18.4052 9.68667 18.7187 9.37318 18.7187 8.98644V4.99517C18.7187 3.45075 17.4622 2.19427 15.9178 2.19427Z" fill="white"/>
<path d="M14.4824 10.2468C12.1465 10.2468 10.2461 12.1472 10.2461 14.4832C10.2461 16.8191 12.1465 18.7195 14.4824 18.7195C16.8184 18.7195 18.7188 16.8191 18.7188 14.4832C18.7188 12.1472 16.8184 10.2468 14.4824 10.2468ZM14.4824 17.3191C12.9187 17.3191 11.6465 16.0469 11.6465 14.4832C11.6465 12.9194 12.9187 11.6473 14.4824 11.6473C16.0462 11.6473 17.3184 12.9194 17.3184 14.4832C17.3184 16.0469 16.0462 17.3191 14.4824 17.3191Z" fill="white"/>
<path d="M15.4968 13.783H15.1817V13.0478C15.1817 12.661 14.8682 12.3475 14.4815 12.3475C14.0947 12.3475 13.7812 12.661 13.7812 13.0478V14.4832C13.7812 14.87 14.0947 15.1834 14.4815 15.1834H15.4968C15.8835 15.1834 16.197 14.87 16.197 14.4832C16.197 14.0965 15.8835 13.783 15.4968 13.783Z" fill="white"/>
<path d="M11.2608 8.84637C11.6475 8.84637 11.961 8.53287 11.961 8.14615C11.961 7.75942 11.6475 7.44592 11.2608 7.44592C10.874 7.44592 10.5605 7.75942 10.5605 8.14615C10.5605 8.53287 10.874 8.84637 11.2608 8.84637Z" fill="white"/>
<path d="M8.21585 11.8924C8.60257 11.8924 8.91607 11.5789 8.91607 11.1922C8.91607 10.8054 8.60257 10.4919 8.21585 10.4919C7.82913 10.4919 7.51562 10.8054 7.51562 11.1922C7.51562 11.5789 7.82913 11.8924 8.21585 11.8924Z" fill="white"/>
<path d="M5.16897 8.84637C5.5557 8.84637 5.8692 8.53287 5.8692 8.14615C5.8692 7.75942 5.5557 7.44592 5.16897 7.44592C4.78225 7.44592 4.46875 7.75942 4.46875 8.14615C4.46875 8.53287 4.78225 8.84637 5.16897 8.84637Z" fill="white"/>
<path d="M5.16897 11.8924C5.5557 11.8924 5.8692 11.5789 5.8692 11.1922C5.8692 10.8054 5.5557 10.4919 5.16897 10.4919C4.78225 10.4919 4.46875 10.8054 4.46875 11.1922C4.46875 11.5789 4.78225 11.8924 5.16897 11.8924Z" fill="white"/>
<path d="M5.16897 14.9384C5.5557 14.9384 5.8692 14.6249 5.8692 14.2382C5.8692 13.8515 5.5557 13.538 5.16897 13.538C4.78225 13.538 4.46875 13.8515 4.46875 14.2382C4.46875 14.6249 4.78225 14.9384 5.16897 14.9384Z" fill="white"/>
<path d="M8.21585 14.9384C8.60257 14.9384 8.91607 14.6249 8.91607 14.2382C8.91607 13.8515 8.60257 13.538 8.21585 13.538C7.82913 13.538 7.51562 13.8515 7.51562 14.2382C7.51562 14.6249 7.82913 14.9384 8.21585 14.9384Z" fill="white"/>
<path d="M8.21585 8.84637C8.60257 8.84637 8.91607 8.53287 8.91607 8.14615C8.91607 7.75942 8.60257 7.44592 8.21585 7.44592C7.82913 7.44592 7.51562 7.75942 7.51562 8.14615C7.51562 8.53287 7.82913 8.84637 8.21585 8.84637Z" fill="white"/>
</svg>
