<svg width="22" height="21" viewBox="0 0 22 21" fill="none" xmlns="http://www.w3.org/2000/svg">
<g clip-path="url(#clip0)">
<path d="M4.79665 5.68877C4.74637 5.67212 4.69626 5.67212 4.64614 5.67212C4.41205 5.67212 4.21158 5.82263 4.14465 6.05656C4.11118 6.19026 4.128 6.32412 4.19476 6.44101C4.2617 6.55805 4.37874 6.64164 4.51244 6.69175C4.79665 6.77533 5.0807 6.60817 5.16429 6.34077C5.19775 6.20708 5.1811 6.07338 5.11417 5.95633C5.0474 5.82263 4.93035 5.73905 4.79665 5.68877Z" fill="white"/>
<path d="M7.62215 8.12937C8.09018 8.12937 8.54156 8.01233 8.94282 7.77823C9.10998 7.678 9.31061 7.72811 9.41085 7.89528C9.51108 8.06244 9.46096 8.26307 9.2938 8.36331C8.7923 8.66433 8.20723 8.81468 7.62215 8.81468C7.52192 8.81468 7.42152 8.81468 7.32129 8.79803" fill="white"/>
<path d="M6.03396 7.59461C6.46869 7.92894 7.00348 8.11275 7.55526 8.12957C7.9397 6.45792 6.9199 4.75281 5.23161 4.28478C5.06444 4.23467 4.89728 4.21785 4.74676 4.18439L5.29854 4.41848C5.19814 4.61911 5.13137 4.83639 5.08109 5.07049C5.3653 5.17072 5.5994 5.35454 5.74975 5.6221C5.90026 5.90631 5.95038 6.22383 5.8668 6.52469C5.71645 7.05965 5.23161 7.39398 4.69665 7.39398C4.59641 7.39398 4.47936 7.37733 4.36232 7.34386C4.0448 7.26028 3.79406 7.05965 3.62689 6.77544C3.47638 6.49139 3.42626 6.17371 3.50984 5.87285C3.62689 5.43812 3.97787 5.13726 4.37913 5.03702C4.42925 4.73616 4.51283 4.45195 4.64653 4.16774C3.97787 4.1008 3.32586 4.23467 2.72414 4.569C1.95525 5.00356 1.40347 5.68887 1.15273 6.54151C0.76828 7.82871 1.18619 9.16602 2.18918 9.96838C2.2393 10.0185 2.25611 10.0854 2.2393 10.1355L1.57064 12.6931C1.57064 12.7432 1.57064 12.7767 1.58745 12.8102L1.9719 13.6795C2.00536 13.763 1.9719 13.8466 1.90497 13.8967L1.26977 14.3147C1.20301 14.3648 1.16954 14.4484 1.20301 14.5319L1.52052 15.2006C1.55399 15.2842 1.53733 15.3678 1.45375 15.4179L0.835211 15.8191C0.76828 15.8693 0.734814 15.9528 0.76828 16.0364L1.08596 16.7051C1.11942 16.7887 1.08596 16.8889 1.01903 16.9224L0.467416 17.2232C0.383834 17.2735 0.350369 17.3737 0.400485 17.4573L1.01903 18.5774C1.03584 18.6108 1.08596 18.6441 1.11942 18.6609H1.16954C1.20301 18.6609 1.23631 18.6609 1.25312 18.6441L2.54032 17.8919C2.57362 17.8752 2.60709 17.8418 2.6239 17.7917L4.61306 10.9546C4.62988 10.8878 4.68 10.8377 4.74676 10.8377C5.81668 10.6872 6.80302 9.8848 7.2877 8.81488C6.66916 8.76476 6.06743 8.53067 5.56593 8.14622C5.41542 8.02917 5.38212 7.81189 5.499 7.66154C5.66617 7.51103 5.88361 7.47756 6.03396 7.59461Z" fill="white"/>
<path d="M4.62988 4.15108C5.16468 3.0477 6.31818 2.27881 7.62203 2.27881C9.15998 2.27881 10.5139 3.36538 10.8483 4.83639C10.8817 5.02021 10.7647 5.20419 10.5809 5.23765C10.3971 5.27096 10.2131 5.15407 10.163 4.97009C9.89557 3.79994 8.82565 2.94747 7.60538 2.94747C6.58558 2.94747 5.68299 3.53254 5.24826 4.40183" fill="white"/>
<path d="M21.0282 11.2053L15.1608 5.40482C15.0269 5.27095 14.6593 4.97009 14.2246 4.95344L10.4299 4.60229C10.4133 4.60229 10.4133 4.60229 10.3966 4.60229H10.313C9.91176 4.60229 9.57743 4.75281 9.27657 5.05367C8.95889 5.37135 8.8252 5.70568 8.8252 6.17371V6.20717L9.15952 9.96837C9.15952 10.4029 9.4772 10.7541 9.6109 10.8878L15.4783 16.6884C15.5452 16.7552 15.6288 16.7887 15.7291 16.7887C15.8294 16.7887 15.913 16.7552 15.9798 16.6884L21.0448 11.6901C21.1619 11.5564 21.1619 11.3392 21.0282 11.2053ZM13.1214 10.8042C13.0378 10.8042 12.9374 10.7707 12.8706 10.7038C12.7369 10.5701 12.7369 10.3528 12.8706 10.2191L14.5422 8.56413C14.6759 8.43043 14.8932 8.43043 15.0269 8.56413C15.1608 8.69782 15.1608 8.91527 15.0269 9.04897L13.3553 10.7038C13.2885 10.7707 13.2049 10.8042 13.1214 10.8042ZM16.9828 10.9714L15.3111 12.6262C15.2444 12.6931 15.1608 12.7266 15.0604 12.7266C14.9602 12.7266 14.8766 12.6931 14.8096 12.6262C14.6759 12.4925 14.6759 12.2752 14.8096 12.1415L16.4813 10.4865C16.615 10.3528 16.8324 10.3528 16.9661 10.4865C17.1165 10.6202 17.1165 10.8377 16.9828 10.9714Z" fill="white"/>
</g>
<defs>
<clipPath id="clip0">
<rect x="0.376953" y="0.079834" width="20.7542" height="20.7542" fill="white"/>
</clipPath>
</defs>
</svg>
