<svg width="26" height="20" viewBox="0 0 26 20" fill="none" xmlns="http://www.w3.org/2000/svg">
<path d="M23.5877 8.80213V3.01216C23.5877 1.73567 22.5492 0.697144 21.2727 0.697144H4.72733C3.45084 0.697144 2.41231 1.73567 2.41231 3.01216V8.80213C1.02314 9.1867 0 10.4613 0 11.9711V16.3705C0 16.7967 0.345617 17.1423 0.771875 17.1423H2.41231V18.5309C2.41231 18.9572 2.75793 19.3028 3.18419 19.3028C3.61045 19.3028 3.95606 18.9572 3.95606 18.5309V17.1423H22.0439V18.5309C22.0439 18.9572 22.3896 19.3028 22.8158 19.3028C23.2421 19.3028 23.5877 18.9572 23.5877 18.5309V17.1423H25.2281C25.6544 17.1423 26 16.7967 26 16.3705V11.9711C26 10.4613 24.9768 9.1867 23.5877 8.80213ZM3.95606 3.01216C3.95606 2.58692 4.30209 2.24089 4.72733 2.24089H21.2727C21.698 2.24089 22.044 2.58692 22.044 3.01216V8.6827H20.2354V7.13331C20.2354 5.78603 19.1394 4.68997 17.7921 4.68997H14.6715C14.0254 4.68997 13.4374 4.94251 13.0001 5.35358C12.5627 4.94256 11.9747 4.68997 11.3286 4.68997H8.20803C6.86075 4.68997 5.76469 5.78608 5.76469 7.13331V8.6827H3.95606V3.01216ZM18.6917 7.13331V8.6827H13.7719V7.13331C13.7719 6.63723 14.1755 6.23372 14.6715 6.23372H17.792C18.2881 6.23372 18.6917 6.63728 18.6917 7.13331ZM12.2281 7.13331V8.6827H7.30829V7.13331C7.30829 6.63723 7.71189 6.23372 8.20788 6.23372H11.3284C11.8245 6.23372 12.2281 6.63728 12.2281 7.13331ZM24.4563 15.5986H1.54375V11.9711C1.54375 11.0091 2.32639 10.2264 3.28844 10.2264H22.7116C23.6736 10.2264 24.4563 11.0091 24.4563 11.9711V15.5986Z" fill="#7B7B7B"/>
</svg>
