<svg width="20" height="20" viewBox="0 0 20 20" fill="none" xmlns="http://www.w3.org/2000/svg">
<g clip-path="url(#clip0)">
<path d="M16.1916 12.6689C17.092 11.434 17.6241 9.91444 17.6241 8.27265C17.6241 4.14882 14.2692 0.793823 10.1453 0.793823C6.02146 0.793823 2.66653 4.14882 2.66653 8.27265C2.66653 9.91444 3.19873 11.434 4.09904 12.6689L1.92969 16.9115L5.0295 17.0911L6.98997 19.4989L8.95482 15.6564C9.34264 15.7187 9.74019 15.7515 10.1453 15.7515C10.5505 15.7515 10.948 15.7187 11.3358 15.6564L13.3007 19.4989L15.2611 17.0911L18.361 16.9115L16.1916 12.6689ZM13.5115 17.5052L12.4318 15.3936C13.5712 15.0269 14.5924 14.3941 15.4213 13.5682L16.6213 15.9151L14.7163 16.0255L13.5115 17.5052ZM5.57441 16.0255L3.6694 15.9151L4.8694 13.5682C5.69829 14.3941 6.71945 15.0269 7.85891 15.3936L6.77919 17.5052L5.57441 16.0255ZM3.76185 8.27265C3.76185 4.7528 6.62547 1.88918 10.1453 1.88918C13.6652 1.88918 16.5288 4.7528 16.5288 8.27265C16.5288 11.7925 13.6652 14.6561 10.1453 14.6561C6.62547 14.6561 3.76185 11.7925 3.76185 8.27265Z" fill="white"/>
<path d="M10.1462 13.1045C12.8104 13.1045 14.9779 10.937 14.9779 8.27276C14.9779 5.60853 12.8104 3.44104 10.1462 3.44104C7.48194 3.44104 5.31445 5.60856 5.31445 8.27276C5.31445 10.937 7.48198 13.1045 10.1462 13.1045ZM10.1462 4.53639C12.2064 4.53639 13.8825 6.21251 13.8825 8.27276C13.8825 10.333 12.2064 12.0092 10.1462 12.0092C8.08592 12.0092 6.40981 10.333 6.40981 8.27276C6.40981 6.21251 8.08596 4.53639 10.1462 4.53639Z" fill="white"/>
<path d="M12.2007 7.43065L11.4262 6.65613L9.86621 8.21613L9.08507 7.43504L8.31055 8.20956L9.86621 9.76522L12.2007 7.43065Z" fill="white"/>
</g>
<defs>
<clipPath id="clip0">
<rect x="0.792969" y="0.793823" width="18.7051" height="18.7051" fill="white"/>
</clipPath>
</defs>
</svg>
