<svg width="20" height="20" viewBox="0 0 20 20" fill="none" xmlns="http://www.w3.org/2000/svg">
<path d="M18.6868 17.3908H12.1639C11.4434 17.3908 10.8594 17.9749 10.8594 18.6954V19.3476C10.8594 19.7079 11.1514 19.9999 11.5116 19.9999H19.3391C19.6993 19.9999 19.9913 19.7079 19.9913 19.3476V18.6954C19.9914 17.9749 19.4073 17.3908 18.6868 17.3908Z" fill="white"/>
<path d="M11.3849 0.382149C10.8753 -0.127461 10.0497 -0.127227 9.54017 0.381914L5.73475 4.18711C5.22514 4.69672 5.22514 5.5227 5.73475 6.03207C6.24436 6.54168 7.06975 6.54156 7.57947 6.03231L11.3849 2.22711C11.8945 1.7175 11.8945 0.891524 11.3849 0.382149Z" fill="white"/>
<path d="M18.7634 7.76108C18.2538 7.2519 17.4282 7.2517 16.9186 7.76131L13.1137 11.5665C12.604 12.0759 12.604 12.9019 13.1137 13.4115C13.6234 13.9208 14.4488 13.9208 14.9584 13.4112L18.7634 9.60604C19.273 9.09663 19.273 8.27069 18.7634 7.76108Z" fill="white"/>
<path d="M12.2494 3.20715L8.55957 6.89676L12.249 10.5863L15.9388 6.89637L12.2494 3.20715Z" fill="white"/>
<path d="M8.09728 8.28058L0.578574 15.7993C-0.182441 16.5603 -0.182441 17.804 0.578574 18.565L0.58291 18.5693C1.36967 19.3471 2.60604 19.3116 3.34424 18.565L10.8647 11.0481L8.09728 8.28058Z" fill="white"/>
</svg>
