<svg width="13" height="9" viewBox="0 0 13 9" fill="none" xmlns="http://www.w3.org/2000/svg">
<path d="M0.562758 5.06278L11.0787 5.06278L8.56948 7.57221C8.34965 7.79191 8.34965 8.1483 8.56948 8.36797C8.78931 8.58779 9.1457 8.58779 9.3652 8.36797L12.8351 4.89798C13.055 4.67828 13.055 4.32185 12.8351 4.10222L9.3652 0.632068C9.25532 0.522122 9.11132 0.46723 8.96734 0.46723C8.82337 0.46723 8.67936 0.522122 8.56948 0.632068C8.34965 0.851766 8.34965 1.20816 8.56948 1.42779L11.0787 3.93735L0.562758 3.93735C0.251996 3.93735 -7.24967e-06 4.18932 -7.27684e-06 4.50008C-7.30401e-06 4.81084 0.251964 5.06278 0.562758 5.06278Z" fill="#282828"/>
</svg>
