<svg width="38" height="38" viewBox="0 0 38 38" fill="none" xmlns="http://www.w3.org/2000/svg">
<path d="M19.0011 0C10.2607 0 3.16797 7.08511 3.16797 15.8336C3.16797 20.2032 4.93976 24.1609 7.80683 27.0275L19.0011 38L30.1988 27.0251C33.0654 24.1613 34.8377 20.2036 34.8343 15.8303C34.8343 7.09272 27.7463 0 19.0011 0ZM27.9616 24.7827L19.0011 33.5654L10.0241 24.7641C7.65199 22.3958 6.33433 19.2151 6.33433 15.8336C6.33433 8.84873 12.0168 3.16682 19.0011 3.16682C22.3841 3.16682 25.5662 4.48587 27.9582 6.87804C30.3503 9.27159 31.668 12.4508 31.668 15.8304C31.6708 19.2151 30.3532 22.3929 27.9616 24.7827Z" fill="#15B615"/>
<path d="M23.885 12.8046L18.9992 17.689L16.0922 14.7834L13.8535 17.022L18.9992 22.1663L26.1242 15.0432L23.885 12.8046Z" fill="#15B615"/>
</svg>
