<svg width="26" height="26" viewBox="0 0 26 26" fill="none" xmlns="http://www.w3.org/2000/svg">
<path d="M23.5877 11.8021V6.01216C23.5877 4.73567 22.5492 3.69714 21.2727 3.69714H4.72733C3.45084 3.69714 2.41231 4.73567 2.41231 6.01216V11.8021C1.02314 12.1867 0 13.4613 0 14.9711V19.3705C0 19.7967 0.345617 20.1423 0.771875 20.1423H2.41231V21.5309C2.41231 21.9572 2.75793 22.3028 3.18419 22.3028C3.61045 22.3028 3.95606 21.9572 3.95606 21.5309V20.1423H22.0439V21.5309C22.0439 21.9572 22.3896 22.3028 22.8158 22.3028C23.2421 22.3028 23.5877 21.9572 23.5877 21.5309V20.1423H25.2281C25.6544 20.1423 26 19.7967 26 19.3705V14.9711C26 13.4613 24.9768 12.1867 23.5877 11.8021ZM3.95606 6.01216C3.95606 5.58692 4.30209 5.24089 4.72733 5.24089H21.2727C21.698 5.24089 22.044 5.58692 22.044 6.01216V11.6827H20.2354V10.1333C20.2354 8.78603 19.1394 7.68997 17.7921 7.68997H14.6715C14.0254 7.68997 13.4374 7.94251 13.0001 8.35358C12.5627 7.94256 11.9747 7.68997 11.3286 7.68997H8.20803C6.86075 7.68997 5.76469 8.78608 5.76469 10.1333V11.6827H3.95606V6.01216ZM18.6917 10.1333V11.6827H13.7719V10.1333C13.7719 9.63723 14.1755 9.23372 14.6715 9.23372H17.792C18.2881 9.23372 18.6917 9.63728 18.6917 10.1333ZM12.2281 10.1333V11.6827H7.30829V10.1333C7.30829 9.63723 7.71189 9.23372 8.20788 9.23372H11.3284C11.8245 9.23372 12.2281 9.63728 12.2281 10.1333ZM24.4563 18.5986H1.54375V14.9711C1.54375 14.0091 2.32639 13.2264 3.28844 13.2264H22.7116C23.6736 13.2264 24.4563 14.0091 24.4563 14.9711V18.5986Z" fill="white"/>
</svg>
