<svg width="26" height="26" viewBox="0 0 26 26" fill="none" xmlns="http://www.w3.org/2000/svg">
<g clip-path="url(#clip0)">
<path d="M25.9967 13.0961C25.9561 12.6382 25.5559 12.3024 25.0944 12.3408C25.0021 12.3484 15.8199 13.1304 10.3536 10.6841C5.57677 8.54606 1.01997 8.56947 0.820753 8.57897C0.361939 8.58481 -0.00577129 8.96115 6.86091e-05 9.42037C0.00550226 9.87604 0.376818 10.2424 0.832026 10.2424C0.835175 10.2424 0.838323 10.2424 0.841471 10.2424C0.889257 10.2519 5.24598 10.2208 9.6748 12.2025C13.2793 13.8163 18.1941 14.1368 21.5332 14.1368C23.6194 14.1368 25.0913 14.012 25.2413 13.9984C25.6993 13.9578 26.0373 13.554 25.9967 13.0961Z" fill="white"/>
<path d="M24.1044 14.5671C23.6583 14.4599 23.2085 14.7352 23.1012 15.1819C22.7529 16.6317 21.5892 20.0041 18.3037 20.0041H8.35718C7.43853 20.0041 6.36831 19.5423 5.4029 18.6422C5.30474 18.5294 5.19789 18.4216 5.08251 18.3204C5.07952 18.3178 5.07627 18.3156 5.07322 18.3131C3.75584 16.9066 2.7039 14.6396 2.62899 11.5733C2.61726 11.1136 2.22833 10.7468 1.77677 10.7616C1.3171 10.7733 0.954263 11.1541 0.965079 11.6138C1.05476 15.2812 2.41779 18.123 4.22664 19.8357C4.44759 20.1371 4.52737 20.4585 4.4745 20.5991C4.45064 20.6622 4.27666 20.7271 3.99045 20.7271C3.53078 20.7271 3.1585 21.0994 3.1585 21.5591C3.1585 22.0188 3.53078 22.391 3.99045 22.391C5.4227 22.391 5.89502 21.5483 6.03112 21.1855C6.0399 21.1621 6.04793 21.1384 6.05575 21.1147C6.81143 21.478 7.59301 21.6682 8.35662 21.6682H18.3033C19.2032 21.6682 20.0438 21.4759 20.8063 21.1101C20.8276 21.1807 20.8529 21.2503 20.8834 21.3184C21.0628 21.7191 21.5567 22.391 22.8479 22.391C23.3076 22.391 23.6794 22.0188 23.6794 21.5591C23.6794 21.0994 23.3072 20.7271 22.8475 20.7271C22.5397 20.7271 22.4184 20.6591 22.4031 20.641C22.3418 20.5482 22.4225 19.9911 22.9142 19.4395C22.9576 19.3909 22.9935 19.3382 23.0235 19.2833C23.7823 18.3075 24.3628 17.0554 24.7192 15.5705C24.8269 15.1233 24.5511 14.6739 24.1044 14.5671Z" fill="white"/>
<path d="M2.42053 8.1823C2.88021 8.1823 3.25112 7.82399 3.25112 7.36431C3.50168 6.51432 7.8296 5.05455 8.87291 5.27271C9.30649 5.58548 9.34569 6.14971 9.34701 6.16413C9.3628 6.62381 9.7558 6.9835 10.2069 6.96679C10.6661 6.951 11.0253 6.56612 11.0096 6.1069C10.9906 5.55663 10.6977 4.45965 9.71833 3.83681C8.58396 3.11616 5.00151 4.25957 3.4286 5.12351C2.19105 5.80313 1.58984 6.52692 1.58984 7.33679C1.58989 7.79651 1.9608 8.1823 2.42053 8.1823Z" fill="white"/>
<path d="M10.1491 7.48596C9.5258 7.48596 9.02148 7.99205 9.02148 8.61266C9.02148 9.23595 9.5258 9.73844 10.1491 9.73844C10.771 9.73844 11.2749 9.23595 11.2749 8.61266C11.2749 7.99205 10.771 7.48596 10.1491 7.48596Z" fill="white"/>
</g>
<defs>
<clipPath id="clip0">
<rect width="26" height="26" fill="white"/>
</clipPath>
</defs>
</svg>
