<svg width="14" height="22" viewBox="0 0 14 22" fill="none" xmlns="http://www.w3.org/2000/svg">
<path d="M8.4858 21.957H4.9558C4.36618 21.957 3.88654 21.4783 3.88654 20.8899V12.9433H1.82707C1.23745 12.9433 0.757812 12.4645 0.757812 11.8762V8.47106C0.757812 7.88258 1.23745 7.40389 1.82707 7.40389H3.88654V5.69873C3.88654 4.00801 4.41848 2.56957 5.42467 1.53915C6.43541 0.504044 7.84791 -0.0429688 9.50948 -0.0429688L12.2016 -0.0386048C12.7902 -0.0375977 13.269 0.441101 13.269 1.02856V4.19012C13.269 4.7786 12.7896 5.25729 12.2001 5.25729L10.3875 5.25797C9.83473 5.25797 9.69397 5.36858 9.66387 5.40248C9.61425 5.45871 9.55523 5.61766 9.55523 6.05658V7.40372H12.0639C12.2528 7.40372 12.4357 7.45021 12.593 7.53783C12.9322 7.72699 13.1431 8.08467 13.1431 8.47122L13.1417 11.8763C13.1417 12.4645 12.6621 12.9432 12.0725 12.9432H9.55523V20.8899C9.55523 21.4783 9.07542 21.957 8.4858 21.957ZM5.1788 20.6673H8.2628V12.3659C8.2628 11.973 8.58317 11.6534 8.9767 11.6534H11.8495L11.8506 8.69362H8.97653C8.583 8.69362 8.2628 8.37404 8.2628 7.98111V6.05658C8.2628 5.5527 8.31409 4.97968 8.69518 4.54898C9.15564 4.02832 9.88132 3.96823 10.3872 3.96823L11.9768 3.96756V1.25079L9.50847 1.24677C6.83819 1.24677 5.1788 2.95276 5.1788 5.69873V7.98111C5.1788 8.37387 4.8586 8.69362 4.46507 8.69362H2.05007V11.6534H4.46507C4.8586 11.6534 5.1788 11.973 5.1788 12.3659V20.6673ZM12.1991 1.25113H12.1993H12.1991Z" fill="#7B7B7B"/>
</svg>
