<svg width="18" height="18" viewBox="0 0 18 18" fill="none" xmlns="http://www.w3.org/2000/svg">
<g clip-path="url(#clip0)">
<path d="M15.8026 2.15084H2.20112C0.986965 2.15084 0 3.1378 0 4.35196V13.648C0 14.8622 0.986965 15.8492 2.20112 15.8492H15.7989C17.013 15.8492 18 14.8622 18 13.648V4.35568C18.0037 3.14153 17.0168 2.15084 15.8026 2.15084ZM16.9981 13.648C16.9981 14.3073 16.4618 14.8436 15.8026 14.8436H2.20112C1.5419 14.8436 1.00559 14.3073 1.00559 13.648V4.35568C1.00559 3.69646 1.5419 3.16015 2.20112 3.16015H15.7989C16.4581 3.16015 16.9944 3.69646 16.9944 4.35568V13.648H16.9981Z" fill="#7B7B7B"/>
<path d="M11.3517 8.88454L15.7539 4.93668C15.9588 4.75047 15.9774 4.43389 15.7912 4.22533C15.6049 4.02048 15.2884 4.00186 15.0798 4.18808L9.00904 9.63687L7.82469 8.57914C7.82096 8.57542 7.81724 8.57169 7.81724 8.56797C7.79117 8.5419 7.7651 8.51955 7.7353 8.49721L2.91593 4.18436C2.70737 3.99814 2.39079 4.01676 2.20457 4.22533C2.01836 4.43389 2.03698 4.75047 2.24554 4.93668L6.69992 8.91806L2.26417 13.0708C2.06305 13.2607 2.05187 13.5773 2.24182 13.7821C2.34238 13.8864 2.47646 13.9423 2.61053 13.9423C2.73344 13.9423 2.85634 13.8976 2.95318 13.8082L7.45597 9.5959L8.67757 10.6872C8.77441 10.7728 8.89359 10.8138 9.01277 10.8138C9.13195 10.8138 9.25485 10.7691 9.34796 10.6834L10.6031 9.55866L15.0798 13.8119C15.1766 13.905 15.3033 13.9497 15.4262 13.9497C15.5603 13.9497 15.6906 13.8976 15.7912 13.7933C15.9811 13.5922 15.9737 13.2719 15.7725 13.0819L11.3517 8.88454Z" fill="#7B7B7B"/>
</g>
<defs>
<clipPath id="clip0">
<rect width="18" height="18" fill="white"/>
</clipPath>
</defs>
</svg>
