<svg width="20" height="20" viewBox="0 0 20 20" fill="none" xmlns="http://www.w3.org/2000/svg">
<path d="M14.375 0H5.625C4.58984 0.00106812 3.75107 0.839844 3.75 1.875V18.125C3.75107 19.1602 4.58984 19.9989 5.625 20H14.375C15.4102 19.9989 16.2489 19.1602 16.25 18.125V1.875C16.2489 0.839844 15.4102 0.00106812 14.375 0ZM15 18.125C15 18.4702 14.7202 18.75 14.375 18.75H5.625C5.27985 18.75 5 18.4702 5 18.125V1.875C5 1.52985 5.27985 1.25 5.625 1.25H14.375C14.7202 1.25 15 1.52985 15 1.875V18.125Z" fill="#7B7B7B"/>
<path d="M9.55951 16.4342C9.36145 16.6341 9.32178 16.942 9.46292 17.1856C9.60422 17.4291 9.89108 17.5477 10.163 17.475C10.4349 17.4022 10.6243 17.1564 10.6252 16.8749C10.6244 16.7084 10.5582 16.5491 10.4409 16.4312C10.1924 16.1991 9.8064 16.2005 9.55951 16.4342Z" fill="#7B7B7B"/>
</svg>
