<svg width="22" height="22" viewBox="0 0 22 22" fill="none" xmlns="http://www.w3.org/2000/svg">
<path d="M16.0448 0H5.95519C2.67144 0 0 2.67144 0 5.95519V16.0449C0 19.3285 2.67144 22 5.95519 22H16.0449C19.3285 22 22 19.3285 22 16.0449V5.95519C22 2.67144 19.3285 0 16.0448 0V0ZM20.7102 16.0449C20.7102 18.6173 18.6173 20.7102 16.0448 20.7102H5.95519C3.38261 20.7102 1.28973 18.6173 1.28973 16.0449V5.95519C1.28973 3.38261 3.38261 1.28973 5.95519 1.28973H16.0449C18.6173 1.28973 20.7102 3.38261 20.7102 5.95519V16.0449Z" fill="#7B7B7B"/>
<path d="M10.9998 4.98453C7.68284 4.98453 4.98438 7.683 4.98438 11C4.98438 14.317 7.68284 17.0154 10.9998 17.0154C14.3168 17.0154 17.0153 14.317 17.0153 11C17.0153 7.683 14.3168 4.98453 10.9998 4.98453ZM10.9998 15.7257C8.39417 15.7257 6.27411 13.6058 6.27411 11C6.27411 8.39433 8.39417 6.27426 10.9998 6.27426C13.6056 6.27426 15.7255 8.39433 15.7255 11C15.7255 13.6058 13.6056 15.7257 10.9998 15.7257Z" fill="#7B7B7B"/>
<path d="M17.1593 2.84818C16.1791 2.84818 15.3818 3.64562 15.3818 4.62568C15.3818 5.6059 16.1791 6.40334 17.1593 6.40334C18.1396 6.40334 18.937 5.6059 18.937 4.62568C18.937 3.64545 18.1396 2.84818 17.1593 2.84818ZM17.1593 5.11344C16.8904 5.11344 16.6716 4.89457 16.6716 4.62568C16.6716 4.35662 16.8904 4.13792 17.1593 4.13792C17.4284 4.13792 17.6473 4.35662 17.6473 4.62568C17.6473 4.89457 17.4284 5.11344 17.1593 5.11344Z" fill="#7B7B7B"/>
</svg>
