<svg width="24" height="24" viewBox="0 0 24 24" fill="none" xmlns="http://www.w3.org/2000/svg">
<g clip-path="url(#clip0)">
<path d="M5.09864 7.13108C5.04343 7.11279 4.98839 7.11279 4.93335 7.11279C4.67627 7.11279 4.45612 7.27808 4.38262 7.53498C4.34587 7.68181 4.36433 7.82882 4.43765 7.95718C4.51116 8.08572 4.6397 8.1775 4.78652 8.23254C5.09864 8.32433 5.41058 8.14075 5.50237 7.8471C5.53912 7.70028 5.52084 7.55345 5.44733 7.42491C5.37401 7.27808 5.24547 7.1863 5.09864 7.13108Z" fill="white"/>
<path d="M8.20052 9.81124C8.7145 9.81124 9.2102 9.68269 9.65086 9.42561C9.83444 9.31554 10.0548 9.37058 10.1648 9.55415C10.2749 9.73773 10.2199 9.95806 10.0363 10.0681C9.48557 10.3987 8.84305 10.5638 8.20052 10.5638C8.09045 10.5638 7.98019 10.5638 7.87012 10.5455" fill="white"/>
<path d="M6.4566 9.22411C6.93401 9.59127 7.52132 9.79313 8.12727 9.8116C8.54946 7.97582 7.42953 6.10328 5.57546 5.5893C5.39188 5.53426 5.2083 5.5158 5.04301 5.47905L5.64896 5.73613C5.53871 5.95646 5.46539 6.19507 5.41017 6.45215C5.72229 6.56223 5.97937 6.76409 6.14448 7.05793C6.30977 7.37004 6.36481 7.71874 6.27302 8.04914C6.10791 8.63663 5.57546 9.00378 4.98798 9.00378C4.8779 9.00378 4.74936 8.9855 4.62082 8.94875C4.27213 8.85696 3.99676 8.63663 3.81318 8.32451C3.64789 8.01257 3.59285 7.6637 3.68464 7.33329C3.81318 6.85588 4.19863 6.52548 4.63928 6.4154C4.69432 6.085 4.78611 5.77288 4.93294 5.46076C4.19863 5.38726 3.4826 5.53426 2.82179 5.90142C1.9774 6.37865 1.37145 7.13125 1.09608 8.06761C0.673891 9.48119 1.13284 10.9498 2.2343 11.831C2.28934 11.886 2.30781 11.9595 2.28934 12.0145L1.55503 14.8232C1.55503 14.8783 1.55503 14.915 1.5735 14.9518L1.99569 15.9064C2.03244 15.9982 1.99569 16.09 1.92219 16.145L1.22463 16.604C1.1513 16.659 1.11455 16.7508 1.1513 16.8426L1.49999 17.5769C1.53674 17.6687 1.51846 17.7605 1.42667 17.8155L0.747394 18.2562C0.673891 18.3112 0.63714 18.403 0.673891 18.4948L1.02276 19.2291C1.05951 19.3209 1.02276 19.431 0.949258 19.4677L0.343486 19.7981C0.251697 19.8534 0.214946 19.9634 0.269983 20.0552L0.949258 21.2852C0.967723 21.322 1.02276 21.3586 1.05951 21.377H1.11455C1.1513 21.377 1.18787 21.377 1.20634 21.3586L2.61993 20.5325C2.6565 20.5142 2.69325 20.4774 2.71171 20.4224L4.89619 12.914C4.91465 12.8406 4.96969 12.7856 5.04301 12.7856C6.21798 12.6203 7.30117 11.7392 7.83344 10.5642C7.15416 10.5092 6.49335 10.2521 5.94262 9.82989C5.77733 9.70134 5.74075 9.46273 5.86911 9.29762C6.05269 9.13232 6.29149 9.09557 6.4566 9.22411Z" fill="white"/>
<path d="M4.91504 5.44234C5.50235 4.23062 6.76911 3.38623 8.20098 3.38623C9.88994 3.38623 11.3768 4.57949 11.744 6.19494C11.7808 6.3968 11.6522 6.59885 11.4503 6.6356C11.2485 6.67217 11.0464 6.54381 10.9914 6.34177C10.6978 5.05672 9.52278 4.12054 8.18269 4.12054C7.06276 4.12054 6.07155 4.76307 5.59413 5.71771" fill="white"/>
<path d="M22.9236 13.1893L16.4801 6.81931C16.3331 6.6723 15.9294 6.3419 15.452 6.32361L11.2847 5.93799C11.2665 5.93799 11.2665 5.93799 11.2482 5.93799H11.1564C10.7157 5.93799 10.3486 6.10328 10.0182 6.43368C9.66929 6.78255 9.52246 7.14971 9.52246 7.66369V7.70044L9.88962 11.831C9.88962 12.3082 10.2385 12.6938 10.3853 12.8406L16.8288 19.2108C16.9023 19.2841 16.9941 19.3209 17.1042 19.3209C17.2144 19.3209 17.3062 19.2841 17.3796 19.2108L22.9419 13.7218C23.0705 13.5749 23.0705 13.3363 22.9236 13.1893ZM14.2404 12.7488C14.1487 12.7488 14.0384 12.7121 13.9651 12.6386C13.8183 12.4918 13.8183 12.2531 13.9651 12.1063L15.8009 10.2888C15.9477 10.142 16.1863 10.142 16.3331 10.2888C16.4801 10.4356 16.4801 10.6744 16.3331 10.8213L14.4973 12.6386C14.424 12.7121 14.3322 12.7488 14.2404 12.7488ZM18.481 12.9324L16.6452 14.7497C16.5719 14.8232 16.4801 14.86 16.3699 14.86C16.2598 14.86 16.168 14.8232 16.0945 14.7497C15.9477 14.6029 15.9477 14.3643 16.0945 14.2175L17.9303 12.4C18.0771 12.2531 18.3159 12.2531 18.4627 12.4C18.6279 12.5468 18.6279 12.7856 18.481 12.9324Z" fill="white"/>
</g>
<defs>
<clipPath id="clip0">
<rect x="0.244141" y="0.971436" width="22.792" height="22.792" fill="white"/>
</clipPath>
</defs>
</svg>
