<svg width="26" height="26" viewBox="0 0 26 26" fill="none" xmlns="http://www.w3.org/2000/svg">
<g clip-path="url(#clip0)">
<path d="M25.9967 13.0962C25.9561 12.6383 25.5559 12.3026 25.0944 12.3409C25.0021 12.3486 15.8199 13.1305 10.3536 10.6842C5.57677 8.54619 1.01997 8.5696 0.820753 8.57909C0.361939 8.58493 -0.00577129 8.96128 6.86091e-05 9.4205C0.00550226 9.87616 0.376818 10.2426 0.832026 10.2426C0.835175 10.2426 0.838323 10.2426 0.841471 10.2426C0.889257 10.252 5.24598 10.2209 9.6748 12.2026C13.2793 13.8165 18.1941 14.1369 21.5332 14.1369C23.6194 14.1369 25.0913 14.0121 25.2413 13.9985C25.6993 13.9579 26.0373 13.5541 25.9967 13.0962Z" fill="#7B7B7B"/>
<path d="M24.1035 14.5672C23.6573 14.4599 23.2075 14.7353 23.1003 15.1819C22.7519 16.6317 21.5882 20.0042 18.3028 20.0042H8.3562C7.43756 20.0042 6.36733 19.5424 5.40192 18.6422C5.30376 18.5295 5.19691 18.4217 5.08154 18.3205C5.07854 18.3178 5.07529 18.3157 5.07225 18.3131C3.75486 16.9067 2.70292 14.6397 2.62802 11.5734C2.61629 11.1137 2.22735 10.7468 1.7758 10.7617C1.31612 10.7734 0.953286 11.1542 0.964103 11.6139C1.05378 15.2813 2.41682 18.1231 4.22566 19.8358C4.44661 20.1371 4.52639 20.4586 4.47353 20.5992C4.44966 20.6622 4.27568 20.7272 3.98948 20.7272C3.5298 20.7272 3.15752 21.0995 3.15752 21.5591C3.15752 22.0188 3.5298 22.3911 3.98948 22.3911C5.42172 22.3911 5.89405 21.5483 6.03014 21.1855C6.03893 21.1622 6.04695 21.1385 6.05477 21.1147C6.81045 21.478 7.59203 21.6682 8.35564 21.6682H18.3023C19.2022 21.6682 20.0428 21.476 20.8053 21.1102C20.8266 21.1807 20.8519 21.2503 20.8824 21.3185C21.0618 21.7192 21.5557 22.3911 22.847 22.3911C23.3066 22.3911 23.6785 22.0188 23.6785 21.5591C23.6785 21.0995 23.3062 20.7272 22.8465 20.7272C22.5387 20.7272 22.4175 20.6591 22.4021 20.6411C22.3408 20.5483 22.4215 19.9912 22.9132 19.4396C22.9567 19.391 22.9926 19.3383 23.0225 19.2834C23.7813 18.3075 24.3618 17.0555 24.7182 15.5705C24.8259 15.1233 24.5501 14.674 24.1035 14.5672Z" fill="#7B7B7B"/>
<path d="M2.41956 8.18242C2.87923 8.18242 3.25014 7.82411 3.25014 7.36443C3.5007 6.51445 7.82862 5.05468 8.87193 5.27283C9.30551 5.5856 9.34471 6.14983 9.34603 6.16426C9.36183 6.62393 9.75483 6.98362 10.2059 6.96691C10.6651 6.95112 11.0244 6.56624 11.0086 6.10703C10.9896 5.55675 10.6967 4.45977 9.71735 3.83693C8.58299 3.11629 5.00054 4.25969 3.42762 5.12364C2.19007 5.80325 1.58887 6.52704 1.58887 7.33691C1.58892 7.79664 1.95983 8.18242 2.41956 8.18242Z" fill="#7B7B7B"/>
<path d="M10.1481 7.48608C9.52482 7.48608 9.02051 7.99217 9.02051 8.61278C9.02051 9.23607 9.52482 9.73856 10.1481 9.73856C10.77 9.73856 11.2739 9.23607 11.2739 8.61278C11.2739 7.99217 10.77 7.48608 10.1481 7.48608Z" fill="#7B7B7B"/>
</g>
<defs>
<clipPath id="clip0">
<rect width="26" height="26" fill="white"/>
</clipPath>
</defs>
</svg>
