<svg width="24" height="24" viewBox="0 0 24 24" fill="none" xmlns="http://www.w3.org/2000/svg">
<g clip-path="url(#clip0)">
<path d="M12.0001 0C5.38317 0 0.000127722 5.38305 0.000127722 11.9999C0.000127722 14.1149 0.555499 16.1824 1.61004 18.0032L0.0355181 23.0011C-0.0505907 23.274 0.0226276 23.5726 0.22522 23.7748C0.371235 23.9213 0.567593 23.9999 0.768123 23.9999C0.845513 23.9999 0.923279 23.9882 0.998981 23.9645L6.32545 22.2864C6.72979 22.159 6.95446 21.7277 6.82715 21.3229C6.69984 20.9181 6.26845 20.6935 5.86411 20.8216L1.94332 22.0567L3.178 18.1355C3.24541 17.9229 3.21625 17.6908 3.09855 17.5007C2.07644 15.85 1.53607 13.948 1.53607 11.9999C1.53607 6.23003 6.2302 1.53585 12.0002 1.53585C17.7705 1.53585 22.4642 6.22998 22.4642 11.9999C22.4642 17.7703 17.7705 22.464 12.0002 22.464C10.6852 22.464 9.40348 22.2235 8.19125 21.7477C7.79605 21.5925 7.35093 21.7876 7.1962 22.1828C7.04146 22.578 7.23613 23.0236 7.63091 23.1779C9.02244 23.7233 10.4926 23.9999 12.0002 23.9999C18.617 23.9999 24.0001 18.6168 24.0001 11.9999C24.0001 5.38305 18.617 0 12.0001 0Z" fill="#656565"/>
<path d="M8.62378 13.0391C8.89832 13.0391 9.16874 12.9268 9.36008 12.7354C9.5556 12.5403 9.66379 12.2736 9.66379 11.9991C9.66379 11.7246 9.55565 11.4583 9.36008 11.2628C8.97323 10.8759 8.2785 10.8759 7.89159 11.2628C7.69608 11.4583 7.58789 11.7246 7.58789 11.9991C7.58789 12.2741 7.69603 12.5403 7.89159 12.7354C8.08298 12.9268 8.34923 13.0391 8.62378 13.0391Z" fill="#656565"/>
<path d="M13.041 11.999C13.041 11.4249 12.575 10.959 12.001 10.959C11.4269 10.959 10.9609 11.4249 10.9609 11.999C10.9609 12.5731 11.4269 13.039 12.001 13.039C12.575 13.039 13.041 12.5731 13.041 11.999Z" fill="#656565"/>
<path d="M16.1109 12.7354C16.3018 12.5403 16.4146 12.2736 16.4146 11.9991C16.4146 11.7246 16.3023 11.4583 16.1109 11.2628C15.724 10.8759 15.0256 10.8759 14.6382 11.2628C14.4473 11.4583 14.335 11.7246 14.335 11.9991C14.335 12.2741 14.4469 12.5403 14.6382 12.7354C14.8338 12.9268 15.1004 13.0391 15.375 13.0391C15.6495 13.0391 15.9158 12.9268 16.1109 12.7354Z" fill="#656565"/>
</g>
<defs>
<clipPath id="clip0">
<rect width="24.0002" height="24" fill="white"/>
</clipPath>
</defs>
</svg>
