<svg width="24" height="24" viewBox="0 0 24 24" fill="none" xmlns="http://www.w3.org/2000/svg">
<g clip-path="url(#clip0)">
<path d="M19.7581 15.2366C20.9133 13.6521 21.5961 11.7024 21.5961 9.59587C21.5961 4.3047 17.2914 0 12.0002 0C6.70902 0 2.40441 4.3047 2.40441 9.59587C2.40441 11.7024 3.08726 13.6521 4.24242 15.2366L1.45898 20.6801L5.43627 20.9105L7.95169 24L10.4727 19.0697C10.9703 19.1497 11.4804 19.1918 12.0002 19.1918C12.52 19.1918 13.0301 19.1497 13.5277 19.0697L16.0488 24L18.5642 20.9105L22.5415 20.6801L19.7581 15.2366ZM16.3193 21.4419L14.9339 18.7326C16.3959 18.2621 17.7061 17.4501 18.7697 16.3905L20.3093 19.4017L17.8651 19.5433L16.3193 21.4419ZM6.13542 19.5433L3.69116 19.4017L5.23085 16.3905C6.29437 17.4501 7.6046 18.2621 9.06661 18.7326L7.68124 21.4419L6.13542 19.5433ZM3.80978 9.59587C3.80978 5.07965 7.48401 1.40542 12.0002 1.40542C16.5164 1.40542 20.1907 5.07965 20.1907 9.59587C20.1907 14.1121 16.5164 17.7863 12.0002 17.7863C7.48401 17.7863 3.80978 14.1121 3.80978 9.59587Z" fill="white"/>
<path d="M12.0002 15.7954C15.4186 15.7954 18.1997 13.0143 18.1997 9.59592C18.1997 6.17753 15.4186 3.39648 12.0002 3.39648C8.58182 3.39648 5.80078 6.17757 5.80078 9.59592C5.80078 13.0143 8.58187 15.7954 12.0002 15.7954ZM12.0002 4.8019C14.6437 4.8019 16.7942 6.95247 16.7942 9.59592C16.7942 12.2394 14.6437 14.39 12.0002 14.39C9.35677 14.39 7.2062 12.2394 7.2062 9.59592C7.2062 6.95247 9.35682 4.8019 12.0002 4.8019Z" fill="white"/>
<path d="M14.6369 8.5155L13.6431 7.52173L11.6415 9.52333L10.6393 8.52112L9.64551 9.5149L11.6415 11.5109L14.6369 8.5155Z" fill="white"/>
</g>
<defs>
<clipPath id="clip0">
<rect width="24" height="24" fill="white"/>
</clipPath>
</defs>
</svg>
