<svg width="26" height="26" viewBox="0 0 26 26" fill="none" xmlns="http://www.w3.org/2000/svg">
<path d="M23.5877 11.8023V6.01228C23.5877 4.73579 22.5492 3.69727 21.2727 3.69727H4.72733C3.45084 3.69727 2.41231 4.73579 2.41231 6.01228V11.8023C1.02314 12.1868 0 13.4614 0 14.9713V19.3706C0 19.7969 0.345617 20.1425 0.771875 20.1425H2.41231V21.531C2.41231 21.9573 2.75793 22.3029 3.18419 22.3029C3.61045 22.3029 3.95606 21.9573 3.95606 21.531V20.1425H22.0439V21.531C22.0439 21.9573 22.3896 22.3029 22.8158 22.3029C23.2421 22.3029 23.5877 21.9573 23.5877 21.531V20.1425H25.2281C25.6544 20.1425 26 19.7969 26 19.3706V14.9713C26 13.4614 24.9768 12.1868 23.5877 11.8023ZM3.95606 6.01228C3.95606 5.58704 4.30209 5.24102 4.72733 5.24102H21.2727C21.698 5.24102 22.044 5.58704 22.044 6.01228V11.6828H20.2354V10.1334C20.2354 8.78616 19.1394 7.69009 17.7921 7.69009H14.6715C14.0254 7.69009 13.4374 7.94263 13.0001 8.3537C12.5627 7.94268 11.9747 7.69009 11.3286 7.69009H8.20803C6.86075 7.69009 5.76469 8.78621 5.76469 10.1334V11.6828H3.95606V6.01228ZM18.6917 10.1334V11.6828H13.7719V10.1334C13.7719 9.63735 14.1755 9.23384 14.6715 9.23384H17.792C18.2881 9.23384 18.6917 9.6374 18.6917 10.1334ZM12.2281 10.1334V11.6828H7.30829V10.1334C7.30829 9.63735 7.71189 9.23384 8.20788 9.23384H11.3284C11.8245 9.23384 12.2281 9.6374 12.2281 10.1334ZM24.4563 18.5987H1.54375V14.9713C1.54375 14.0093 2.32639 13.2266 3.28844 13.2266H22.7116C23.6736 13.2266 24.4563 14.0092 24.4563 14.9713V18.5987Z" fill="#7B7B7B"/>
</svg>
