<svg width="44" height="52" viewBox="0 0 44 52" fill="none" xmlns="http://www.w3.org/2000/svg">
<path d="M22.0004 0C10.0398 0 0.333984 9.69541 0.333984 21.6671C0.333984 27.6465 2.75854 33.0623 6.68189 36.985L22.0004 52L37.3236 36.9817C41.2463 33.0628 43.6715 27.6471 43.6669 21.6625C43.6669 9.70582 33.9675 0 22.0004 0ZM34.2621 33.9131L22.0004 45.9316L9.71607 33.8877C6.47001 30.6469 4.66689 26.2944 4.66689 21.6671C4.66689 12.1088 12.4429 4.33354 22.0004 4.33354C26.6298 4.33354 30.9841 6.13856 34.2575 9.41205C37.5309 12.6874 39.334 17.0379 39.334 21.6626C39.3379 26.2944 37.5348 30.6429 34.2621 33.9131Z" fill="#15B615"/>
<path d="M17.0238 16.0385C16.9694 16.0205 16.9152 16.0205 16.861 16.0205C16.608 16.0205 16.3912 16.1832 16.3189 16.4361C16.2827 16.5807 16.3009 16.7254 16.373 16.8518C16.4454 16.9783 16.572 17.0687 16.7165 17.1229C17.0238 17.2132 17.3309 17.0325 17.4212 16.7434C17.4574 16.5989 17.4394 16.4543 17.367 16.3278C17.2949 16.1832 17.1683 16.0929 17.0238 16.0385Z" fill="#15B615"/>
<path d="M20.0772 18.6764C20.5832 18.6764 21.0712 18.5499 21.5051 18.2968C21.6858 18.1884 21.9027 18.2426 22.0111 18.4234C22.1194 18.6041 22.0653 18.821 21.8845 18.9294C21.3423 19.2548 20.7098 19.4174 20.0772 19.4174C19.9689 19.4174 19.8603 19.4174 19.752 19.3994" fill="#15B615"/>
<path d="M18.3602 18.099C18.8302 18.4605 19.4084 18.6592 20.0049 18.6774C20.4206 16.8701 19.318 15.0266 17.4927 14.5206C17.312 14.4664 17.1313 14.4482 16.9685 14.4121L17.5651 14.6652C17.4565 14.8821 17.3844 15.117 17.33 15.3701C17.6373 15.4784 17.8904 15.6772 18.0529 15.9664C18.2156 16.2737 18.2698 16.617 18.1794 16.9423C18.0169 17.5206 17.4927 17.8821 16.9143 17.8821C16.806 17.8821 16.6794 17.8641 16.5529 17.8279C16.2096 17.7375 15.9385 17.5206 15.7578 17.2134C15.5951 16.9063 15.5409 16.5628 15.6312 16.2375C15.7578 15.7675 16.1372 15.4423 16.5711 15.3339C16.6253 15.0086 16.7156 14.7013 16.8602 14.3941C16.1372 14.3217 15.4323 14.4664 14.7818 14.8279C13.9505 15.2977 13.354 16.0386 13.0829 16.9605C12.6672 18.3521 13.119 19.7979 14.2034 20.6654C14.2576 20.7196 14.2758 20.7919 14.2576 20.8461L13.5347 23.6113C13.5347 23.6655 13.5347 23.7016 13.5529 23.7378L13.9685 24.6776C14.0047 24.7679 13.9685 24.8584 13.8961 24.9126L13.2094 25.3644C13.1372 25.4186 13.101 25.5089 13.1372 25.5992L13.4805 26.3221C13.5167 26.4126 13.4987 26.5029 13.4083 26.5571L12.7396 26.991C12.6672 27.045 12.631 27.1355 12.6672 27.2258L13.0107 27.9487C13.0469 28.0391 13.0107 28.1475 12.9383 28.1836L12.3419 28.5089C12.2516 28.5632 12.2154 28.6716 12.2696 28.762L12.9383 29.9729C12.9565 30.0092 13.0107 30.0452 13.0469 30.0634H13.101C13.1372 30.0634 13.1732 30.0634 13.1914 30.0452L14.583 29.2318C14.6191 29.2139 14.6552 29.1776 14.6734 29.1234L16.824 21.7316C16.8422 21.6594 16.8963 21.6052 16.9685 21.6052C18.1253 21.4425 19.1916 20.575 19.7156 19.4183C19.0469 19.3641 18.3964 19.111 17.8542 18.6954C17.6915 18.5688 17.6554 18.3339 17.7818 18.1714C17.9625 18.0086 18.1976 17.9725 18.3602 18.099Z" fill="#15B615"/>
<path d="M16.8418 14.3758C17.42 13.1828 18.6671 12.3516 20.0767 12.3516C21.7395 12.3516 23.2033 13.5263 23.5648 15.1167C23.601 15.3154 23.4744 15.5143 23.2757 15.5505C23.0769 15.5865 22.878 15.4601 22.8239 15.2612C22.5348 13.9961 21.378 13.0745 20.0587 13.0745C18.9562 13.0745 17.9804 13.707 17.5103 14.6468" fill="#15B615"/>
<path d="M34.5702 22.0021L28.2266 15.7309C28.0819 15.5862 27.6845 15.2609 27.2145 15.2429L23.1119 14.8633C23.0939 14.8633 23.0939 14.8633 23.0759 14.8633H22.9855C22.5517 14.8633 22.1902 15.026 21.865 15.3513C21.5215 15.6947 21.377 16.0562 21.377 16.5622V16.5984L21.7384 20.6648C21.7384 21.1346 22.0819 21.5142 22.2264 21.6587L28.57 27.9301C28.6423 28.0023 28.7327 28.0384 28.841 28.0384C28.9495 28.0384 29.04 28.0023 29.1121 27.9301L34.5881 22.5263C34.7147 22.3816 34.7147 22.1468 34.5702 22.0021ZM26.0217 21.5684C25.9313 21.5684 25.8228 21.5322 25.7506 21.4599C25.6061 21.3153 25.6061 21.0804 25.7506 20.9359L27.5579 19.1466C27.7024 19.002 27.9374 19.002 28.0819 19.1466C28.2266 19.2911 28.2266 19.5262 28.0819 19.6708L26.2747 21.4599C26.2024 21.5322 26.1121 21.5684 26.0217 21.5684ZM30.1965 21.7492L28.3892 23.5382C28.3171 23.6106 28.2266 23.6468 28.1181 23.6468C28.0097 23.6468 27.9194 23.6106 27.8471 23.5382C27.7024 23.3937 27.7024 23.1587 27.8471 23.0142L29.6543 21.225C29.7989 21.0804 30.034 21.0804 30.1785 21.225C30.341 21.3695 30.341 21.6046 30.1965 21.7492Z" fill="#15B615"/>
</svg>
