<svg width="52" height="52" viewBox="0 0 52 52" fill="none" xmlns="http://www.w3.org/2000/svg">
<path d="M26.0004 0C14.0398 0 4.33398 9.69541 4.33398 21.6671C4.33398 27.6465 6.75854 33.0623 10.6819 36.985L26.0004 52L41.3236 36.9817C45.2463 33.0628 47.6715 27.6471 47.6669 21.6625C47.6669 9.70582 37.9675 0 26.0004 0ZM38.2621 33.9131L26.0004 45.9316L13.7161 33.8877C10.47 30.6469 8.66689 26.2944 8.66689 21.6671C8.66689 12.1088 16.4429 4.33354 26.0004 4.33354C30.6298 4.33354 34.9841 6.13856 38.2575 9.41205C41.5309 12.6874 43.334 17.0379 43.334 21.6626C43.3379 26.2944 41.5348 30.6429 38.2621 33.9131Z" fill="#5C958E"/>
<path d="M31 14H35C35.2652 14 35.5196 14.1054 35.7071 14.2929C35.8946 14.4804 36 14.7348 36 15V31C36 31.2652 35.8946 31.5196 35.7071 31.7071C35.5196 31.8946 35.2652 32 35 32H17C16.7348 32 16.4804 31.8946 16.2929 31.7071C16.1054 31.5196 16 31.2652 16 31V15C16 14.7348 16.1054 14.4804 16.2929 14.2929C16.4804 14.1054 16.7348 14 17 14H21V12H23V14H29V12H31V14ZM18 20V30H34V20H18ZM20 22H22V24H20V22ZM20 26H22V28H20V26ZM24 22H32V24H24V22ZM24 26H29V28H24V26Z" fill="#5C958E"/>
</svg>
