<svg width="40" height="40" viewBox="0 0 40 40" fill="none" xmlns="http://www.w3.org/2000/svg">
<path d="M30.3485 37.1176C31.0867 36.6705 31.3226 35.7098 30.8755 34.9716C30.4282 34.2334 29.4675 33.9975 28.7296 34.4449C26.105 36.0345 23.0862 36.875 20 36.875C10.6952 36.875 3.125 29.3048 3.125 20C3.125 10.6952 10.6952 3.125 20 3.125C29.3048 3.125 36.875 10.6952 36.875 20C36.875 23.3273 35.8856 26.5659 34.0137 29.3658C33.5339 30.0833 33.7268 31.0538 34.444 31.5332C35.1617 32.0129 36.1319 31.8201 36.6113 31.1029C38.8284 27.7872 40 23.9478 40 20C40 14.6579 37.9196 9.63531 34.1422 5.85785C30.3647 2.08038 25.3421 0 20 0C14.6579 0 9.63531 2.08038 5.85785 5.85785C2.08038 9.63531 0 14.6579 0 20C0 25.3421 2.08038 30.3647 5.85785 34.1422C9.63531 37.9196 14.6579 40 20 40C23.6572 40 27.2357 39.0033 30.3485 37.1176Z" fill="#C4C4C4"/>
<path d="M22.64 20.0005L27.5898 15.0507C28.1367 14.5038 28.1367 13.6171 27.5898 13.0711L26.9299 12.4112C26.3828 11.8641 25.4962 11.8641 24.9501 12.4112L20.0005 17.3608L15.0507 12.4102C14.5038 11.8633 13.6171 11.8633 13.0711 12.4102L12.4102 13.07C11.8633 13.6171 11.8633 14.5038 12.4102 15.0498L17.3608 20.0005L12.4112 24.9501C11.8641 25.4972 11.8641 26.3839 12.4112 26.9299L13.0711 27.5898C13.618 28.1367 14.5046 28.1367 15.0507 27.5898L20.0005 22.64L24.9501 27.5898C25.4972 28.1367 26.3839 28.1367 26.9299 27.5898L27.5898 26.9299C28.1367 26.3828 28.1367 25.4962 27.5898 24.9501L22.64 20.0005Z" fill="#C4C4C4"/>
</svg>
