<svg width="40" height="40" viewBox="0 0 40 40" fill="none" xmlns="http://www.w3.org/2000/svg">
<path d="M27.0312 21.561H12.9688C12.1057 21.561 11.4062 20.8615 11.4062 19.9985C11.4062 19.1357 12.1057 18.436 12.9688 18.436H27.0312C27.8943 18.436 28.5938 19.1357 28.5938 19.9985C28.5938 20.8615 27.8943 21.561 27.0312 21.561ZM28.5938 13.75C28.5938 12.887 27.8943 12.1875 27.0312 12.1875H12.9688C12.1057 12.1875 11.4062 12.887 11.4062 13.75C11.4062 14.613 12.1057 15.3125 12.9688 15.3125H27.0312C27.8943 15.3125 28.5938 14.613 28.5938 13.75ZM28.5938 26.25C28.5938 25.387 27.8943 24.6875 27.0312 24.6875H12.9688C12.1057 24.6875 11.4062 25.387 11.4062 26.25C11.4062 27.113 12.1057 27.8125 12.9688 27.8125H27.0312C27.8943 27.8125 28.5938 27.113 28.5938 26.25ZM30.3485 37.1176C31.0867 36.6705 31.3226 35.7098 30.8755 34.9716C30.4282 34.2334 29.4675 33.9975 28.7296 34.4449C26.105 36.0345 23.0862 36.875 20 36.875C10.6952 36.875 3.125 29.3048 3.125 20C3.125 10.6952 10.6952 3.125 20 3.125C29.3048 3.125 36.875 10.6952 36.875 20C36.875 23.3273 35.8856 26.5659 34.0137 29.3658C33.5339 30.0833 33.7268 31.0538 34.444 31.5332C35.1617 32.0129 36.1319 31.8201 36.6113 31.1029C38.8284 27.7872 40 23.9478 40 20C40 14.6579 37.9196 9.63531 34.1422 5.85785C30.3647 2.08038 25.3421 0 20 0C14.6579 0 9.63531 2.08038 5.85785 5.85785C2.08038 9.63531 0 14.6579 0 20C0 25.3421 2.08038 30.3647 5.85785 34.1422C9.63531 37.9196 14.6579 40 20 40C23.6572 40 27.2357 39.0033 30.3485 37.1176Z" fill="white"/>
</svg>
