<svg width="43" height="43" viewBox="0 0 43 43" fill="none" xmlns="http://www.w3.org/2000/svg">
<path d="M21.3875 6.46825L21.5 6.59588L21.6125 6.46825C22.8175 5.10133 24.5789 4.23728 26.5391 4.23728H41.3203C42.1652 4.23728 42.85 4.92212 42.85 5.76697V32.194C42.85 33.0388 42.1652 33.7237 41.3203 33.7237H26.5391C24.6039 33.7237 23.0297 35.2979 23.0297 37.2331C23.0297 38.0779 22.3448 38.7627 21.5 38.7627C20.6552 38.7627 19.9703 38.0779 19.9703 37.2331C19.9703 35.2979 18.3961 33.7237 16.4609 33.7237H1.67969C0.834839 33.7237 0.15 33.0388 0.15 32.194V5.76697C0.15 4.92212 0.834839 4.23728 1.67969 4.23728H16.4609C18.4211 4.23728 20.1825 5.10141 21.3875 6.46825ZM19.7451 31.548L19.9703 31.6786V31.4182V10.806C19.9703 8.87083 18.3961 7.29666 16.4609 7.29666H3.35938H3.20937V7.44666V30.5143V30.6643H3.35938H16.4609C17.6569 30.6643 18.778 30.9872 19.7451 31.548ZM39.7906 7.44666V7.29666H39.6406H26.5391C24.6039 7.29666 23.0297 8.87083 23.0297 10.806V31.4182V31.6786L23.2549 31.548C24.222 30.9872 25.3431 30.6643 26.5391 30.6643H39.6406H39.7906V30.5143V7.44666ZM16.4229 12.3737C16.4229 13.2185 15.738 13.9034 14.8932 13.9034H8.28649C7.44164 13.9034 6.7568 13.2185 6.7568 12.3737C6.7568 11.5288 7.44164 10.844 8.28649 10.844H14.8932C15.738 10.844 16.4229 11.5288 16.4229 12.3737ZM8.28649 17.4508H14.8932C15.738 17.4508 16.4229 18.1356 16.4229 18.9805C16.4229 19.8253 15.738 20.5102 14.8932 20.5102H8.28649C7.44164 20.5102 6.7568 19.8253 6.7568 18.9805C6.7568 18.1356 7.44164 17.4508 8.28649 17.4508ZM8.28649 24.0576H14.8932C15.738 24.0576 16.4229 24.7424 16.4229 25.5873C16.4229 26.4321 15.738 27.117 14.8932 27.117H8.28649C7.44164 27.117 6.7568 26.4321 6.7568 25.5873C6.7568 24.7424 7.44164 24.0576 8.28649 24.0576ZM34.7135 13.9034H28.1068C27.2619 13.9034 26.5771 13.2185 26.5771 12.3737C26.5771 11.5288 27.2619 10.844 28.1068 10.844H34.7135C35.5584 10.844 36.2432 11.5288 36.2432 12.3737C36.2432 13.2185 35.5584 13.9034 34.7135 13.9034ZM28.1068 17.4508H34.7135C35.5584 17.4508 36.2432 18.1356 36.2432 18.9805C36.2432 19.8253 35.5584 20.5102 34.7135 20.5102H28.1068C27.2619 20.5102 26.5771 19.8253 26.5771 18.9805C26.5771 18.1356 27.2619 17.4508 28.1068 17.4508ZM28.1068 24.0576H34.7135C35.5584 24.0576 36.2432 24.7424 36.2432 25.5873C36.2432 26.4321 35.5584 27.117 34.7135 27.117H28.1068C27.2619 27.117 26.5771 26.4321 26.5771 25.5873C26.5771 24.7424 27.2619 24.0576 28.1068 24.0576Z" fill="white" stroke="#15B615" stroke-width="0.3"/>
</svg>
