<svg width="44" height="44" viewBox="0 0 44 44" fill="none" xmlns="http://www.w3.org/2000/svg">
<g clip-path="url(#clip0)">
<path d="M28.8686 33.7636C27.8793 32.6119 27.2791 31.1163 27.2791 29.4822C27.2791 25.854 30.2308 22.9019 33.8593 22.9019C37.4875 22.9019 40.4393 25.854 40.4393 29.4822C40.4393 31.1163 39.8394 32.6119 38.8498 33.7636C40.8757 34.7472 42.6068 36.3196 43.7683 38.3257C44.244 39.1471 43.9637 40.1985 43.1423 40.6742C42.3208 41.1499 41.2694 40.8699 40.7934 40.0485C39.4137 37.6654 36.8866 36.1548 34.148 36.0551C33.9238 36.0648 33.7949 36.0648 33.5703 36.0551C30.8317 36.1548 28.3049 37.6654 26.9249 40.0485C26.4506 40.8672 25.4002 41.1516 24.5761 40.6742C23.7546 40.1985 23.4743 39.1471 23.95 38.3257C25.1118 36.3199 26.8427 34.7472 28.8686 33.7636ZM33.6321 32.6159C33.8869 32.6105 33.8295 32.6105 34.0863 32.6159C35.7134 32.4987 37.0018 31.1385 37.0018 29.4822C37.0018 27.7493 35.5922 26.3394 33.8593 26.3394C32.1265 26.3394 30.7166 27.7493 30.7166 29.4822C30.7166 31.1385 32.005 32.4987 33.6321 32.6159ZM0.231537 38.3257C1.39338 36.3199 3.12421 34.7472 5.15012 33.7636C4.16083 32.6119 3.56061 31.1163 3.56061 29.4822C3.56061 25.854 6.51237 22.9022 10.1409 22.9022C13.7691 22.9022 16.7208 25.854 16.7208 29.4822C16.7208 31.1163 16.1209 32.6122 15.1313 33.7636C17.1576 34.7472 18.8884 36.3199 20.0499 38.3257C20.5256 39.1471 20.2453 40.1989 19.4238 40.6745C18.6024 41.1499 17.551 40.8699 17.0753 40.0485C15.6953 37.6654 13.1682 36.1548 10.4296 36.0551C10.2053 36.0648 10.0764 36.0648 9.85185 36.0551C7.11326 36.1548 4.58649 37.6654 3.20646 40.0485C2.73212 40.8672 1.68174 41.1516 0.857605 40.6745C0.0361633 40.1989 -0.244141 39.1471 0.231537 38.3257ZM9.91362 32.6159C10.1684 32.6105 10.111 32.6105 10.3678 32.6159C11.9949 32.4987 13.2833 31.1385 13.2833 29.4822C13.2833 27.7493 11.8737 26.3394 10.1409 26.3394C8.40803 26.3394 6.99812 27.7493 6.99812 29.4822C6.99812 31.1385 8.28651 32.4987 9.91362 32.6159ZM15.0658 20.3251C14.5905 21.1469 13.5391 21.4275 12.7177 20.9522C11.8959 20.4769 11.6152 19.4255 12.0906 18.604C13.2528 16.5949 14.9846 15.0202 17.0122 14.0359C16.0209 12.8848 15.42 11.389 15.42 9.75446C15.42 6.12897 18.3718 3.17957 21.9999 3.17957C25.6285 3.17957 28.5802 6.12897 28.5802 9.75446C28.5802 11.389 27.979 12.8848 26.988 14.0359C29.0153 15.0202 30.7474 16.5949 31.9096 18.604C32.385 19.4255 32.1043 20.4769 31.2825 20.9522C30.4611 21.4275 29.4094 21.1469 28.934 20.3251C27.5369 17.9095 24.9634 16.3898 22.1852 16.325C21.9566 16.3314 22.0436 16.3314 21.815 16.325C19.0368 16.3898 16.4633 17.9095 15.0658 20.3251ZM21.8277 12.8872C22.0691 12.8835 21.8992 12.8831 22.1721 12.8872C23.8251 12.7975 25.1427 11.4269 25.1427 9.75446C25.1427 8.02463 23.7328 6.61707 21.9999 6.61707C20.2671 6.61707 18.8572 8.02463 18.8572 9.75446C18.8572 11.4269 20.1748 12.7975 21.8277 12.8872Z" fill="white"/>
</g>
<defs>
<clipPath id="clip0">
<rect width="44" height="44" transform="matrix(-1 0 0 1 44 0)" fill="white"/>
</clipPath>
</defs>
</svg>
