<svg width="52" height="52" viewBox="0 0 52 52" fill="none" xmlns="http://www.w3.org/2000/svg">
<g clip-path="url(#clip0)">
<path d="M50.4788 25.5983C50.9456 24.7186 50.8076 23.5591 50.1188 22.8766L48.221 20.9961C47.5988 20.3796 46.7404 20.0371 45.8642 20.0598L43.2546 20.1185L42.7655 18.6645L42.7712 18.655C43.5834 18.518 44.2324 17.911 44.4248 17.1088L45.2303 13.75C45.5209 12.5378 44.9988 11.2912 43.9313 10.6479L41.5654 9.22228C41.1327 8.96167 40.6372 8.82051 40.1323 8.81406L37.5436 8.7812C37.2558 8.77752 36.9922 8.61947 36.8534 8.36735L35.8643 6.5707C35.4556 5.82806 34.7438 5.3097 33.9114 5.14848L28.9901 4.196C27.9863 4.00192 26.9503 4.36377 26.2858 5.1407L24.8171 6.8093C24.0516 6.42974 23.1285 6.48737 22.4755 6.99294L20.3294 8.65509C19.4757 9.31625 18.302 9.42762 17.3393 8.93874L16.0834 8.30102C15.2388 7.87213 14.2219 7.93518 13.4495 8.48353C13.2254 8.64271 12.9301 8.61865 12.7492 8.42672L11.3867 6.9826C11.0439 6.61921 10.4981 6.5622 10.0921 6.82169C9.9683 6.8961 9.36518 7.25867 9.14909 7.38867C8.66441 7.6803 8.5081 8.30952 8.79983 8.794C9.09157 9.27858 9.72099 9.43489 10.2055 9.14315C10.2669 9.1062 10.3596 9.05031 10.4637 8.98756L11.26 9.83164C12.1429 10.7675 13.5556 10.9074 14.6188 10.1642C14.7776 10.0532 14.9836 10.0387 15.1565 10.1264C15.1565 10.1264 16.5932 10.8525 16.6851 10.8921V28.1832L16.3037 28.2823L15.4618 26.5185C14.8798 25.2995 13.6011 24.5769 12.2795 24.7215C11.7725 24.7772 11.2874 24.4844 11.0998 24.0102L10.0382 21.3061C9.32638 19.493 7.13512 18.7794 5.46897 19.8433C5.01561 20.1327 4.40758 20.0261 4.08289 19.597C3.07278 18.2624 2.43445 16.6784 2.2372 15.0164L2.11815 14.0133L2.28347 13.9137C2.75075 13.6323 2.94647 13.034 2.69578 12.5496C2.42114 12.0186 1.7607 11.8375 1.25688 12.1409L0.519975 12.5861C0.171637 12.7831 -0.042914 13.1758 0.00724337 13.5981L0.20429 15.2577C0.446581 17.2987 1.23518 19.2428 2.48379 20.8762C3.45879 22.1516 5.22648 22.398 6.5927 21.5549C7.15569 21.2074 7.88543 21.4511 8.12527 22.0569L9.19628 24.7633C9.72181 26.0921 11.0815 26.912 12.5019 26.7567C12.9597 26.7066 13.4067 26.9654 13.6144 27.4003L14.82 29.9263C15.0313 30.3689 15.5267 30.5998 16.0014 30.4761L18.0907 29.9331C18.5193 29.8216 18.9686 29.9104 19.3229 30.1764L20.6448 31.1693C21.019 31.4505 21.2347 31.8977 21.2218 32.3656L21.1248 35.8565C21.0946 36.9434 21.9196 37.8677 23.003 37.9605L25.3807 38.1644C26.6014 38.2692 27.7599 37.5431 28.1979 36.3988L28.9689 34.3847C29.0277 34.2311 29.1458 34.162 29.2109 34.1345C29.2759 34.107 29.4081 34.0709 29.5609 34.1367C29.7226 34.2062 29.8294 34.3891 29.8265 34.592L29.7549 39.6355C29.7379 40.8288 30.3226 41.9335 31.319 42.5905L37.4071 46.605C38.6422 47.4195 40.1086 47.8558 41.5853 47.8557C41.7546 47.8557 43.662 47.7312 43.662 47.7312C44.6387 47.6644 45.4362 46.9174 45.5581 45.9549C45.7629 44.34 45.4339 42.6706 44.632 41.254L43.7708 39.7328C43.6094 39.4477 43.5934 39.1028 43.7277 38.8039L45.4409 34.9921C45.64 34.5492 46.1311 34.3029 46.6093 34.4069C47.6537 34.6337 48.7654 34.2678 49.5107 33.4516L51.1215 31.6875C51.687 31.0682 52.0004 30.2599 52.0004 29.4215V28.375C51.9999 27.2696 51.3779 26.154 50.4788 25.5983ZM31.8015 39.6644L31.8731 34.621C31.888 33.5833 31.2976 32.6549 30.369 32.2557C29.7387 31.9847 29.0444 31.9823 28.4139 32.2485C27.7925 32.511 27.2977 33.0229 27.0566 33.6527L26.2856 35.6667C26.1721 35.9633 25.8725 36.1517 25.5553 36.1244L23.1708 35.9132L23.2678 32.4222C23.2991 31.2918 22.7781 30.2115 21.8739 29.5323L20.5519 28.5393C20.013 28.1345 19.3832 27.8997 18.7321 27.8485V11.285C19.7485 11.2586 20.7531 10.9164 21.5828 10.2737L23.7842 8.58201C24.6674 9.02001 25.8136 8.84252 26.4551 8.09231L27.8415 6.4712C28.028 6.25296 28.3188 6.15122 28.6009 6.20598L33.3698 7.12898V41.4909L32.4453 40.8813C32.0352 40.6107 31.7944 40.1558 31.8015 39.6644ZM49.9526 29.4214C49.9526 29.7499 49.8306 30.0644 49.6091 30.307L47.9983 32.0711C47.7435 32.3504 47.3777 32.4789 47.0435 32.4062C45.6259 32.0982 44.1666 32.8328 43.5732 34.1527L41.86 37.9644C41.4601 38.8541 41.5082 39.8923 41.9889 40.7412L42.85 42.2624C43.4343 43.2944 43.675 44.5101 43.5281 45.687C43.5266 45.6877 43.5246 45.6883 43.522 45.6885L41.9536 45.7957C40.7529 45.8777 39.5384 45.5581 38.5338 44.8956L35.4174 42.8407V9.86255C35.9435 10.4591 36.7049 10.8179 37.5178 10.8282L40.1066 10.8611C40.2484 10.8629 40.3876 10.9026 40.5091 10.9758L42.875 12.4014C43.1748 12.5821 43.3214 12.9323 43.2398 13.2726L42.431 16.6364C41.8373 16.7365 41.3194 17.0901 41.0101 17.6066C40.7007 18.1232 40.6334 18.7467 40.8254 19.3172L41.3145 20.7713C41.6034 21.6301 42.4048 22.1907 43.312 22.17L45.9146 22.1064C46.2372 22.0982 46.5519 22.2239 46.7803 22.4503L48.7104 24.4298C48.1701 25.4471 48.4859 26.8175 49.466 27.4234C49.7663 27.609 49.9529 27.9736 49.9529 28.3749V29.4214H49.9526ZM4.7074 10.642C4.7074 10.0764 5.16588 9.61791 5.73153 9.61791C6.29718 9.61791 6.75566 10.0764 6.75566 10.642C6.75566 11.2077 6.29718 11.6662 5.73153 11.6662C5.16588 11.6662 4.7074 11.2076 4.7074 10.642Z" fill="white" stroke="white" stroke-width="0.4"/>
</g>
<defs>
<clipPath id="clip0">
<rect width="52" height="52" fill="white"/>
</clipPath>
</defs>
</svg>
