<svg width="52" height="52" viewBox="0 0 52 52" fill="none" xmlns="http://www.w3.org/2000/svg">
<path d="M26.0004 0C14.0398 0 4.33398 9.69541 4.33398 21.6671C4.33398 27.6465 6.75854 33.0623 10.6819 36.985L26.0004 52L41.3236 36.9817C45.2463 33.0628 47.6715 27.6471 47.6669 21.6625C47.6669 9.70582 37.9675 0 26.0004 0ZM38.2621 33.9131L26.0004 45.9316L13.7161 33.8877C10.47 30.6469 8.66689 26.2944 8.66689 21.6671C8.66689 12.1088 16.4429 4.33354 26.0004 4.33354C30.6298 4.33354 34.9841 6.13856 38.2575 9.41205C41.5309 12.6874 43.334 17.0379 43.334 21.6626C43.3379 26.2944 41.5348 30.6429 38.2621 33.9131Z" fill="#FA9014"/>
<path d="M32.6844 17.5221L25.9985 24.206L22.0205 20.23L18.957 23.2934L25.9985 30.3329L35.7485 20.5854L32.6844 17.5221Z" fill="#FA9014"/>
</svg>
