<svg width="18" height="14" viewBox="0 0 18 14" fill="none" xmlns="http://www.w3.org/2000/svg">
<path d="M15.8026 0.150879H2.20112C0.986965 0.150879 0 1.13784 0 2.352V11.6481C0 12.8622 0.986965 13.8492 2.20112 13.8492H15.7989C17.013 13.8492 18 12.8622 18 11.6481V2.35572C18.0037 1.14157 17.0168 0.150879 15.8026 0.150879ZM16.9981 11.6481C16.9981 12.3073 16.4618 12.8436 15.8026 12.8436H2.20112C1.5419 12.8436 1.00559 12.3073 1.00559 11.6481V2.35572C1.00559 1.6965 1.5419 1.16019 2.20112 1.16019H15.7989C16.4581 1.16019 16.9944 1.6965 16.9944 2.35572V11.6481H16.9981Z" fill="#C4C4C4"/>
<path d="M11.352 6.8845L15.7542 2.93664C15.9591 2.75042 15.9777 2.43385 15.7915 2.22528C15.6053 2.02044 15.2887 2.00182 15.0801 2.18804L9.00935 7.63683L7.82499 6.5791C7.82127 6.57537 7.81754 6.57165 7.81754 6.56792C7.79147 6.54185 7.7654 6.51951 7.73561 6.49716L2.91624 2.18431C2.70767 1.99809 2.3911 2.01671 2.20488 2.22528C2.01866 2.43385 2.03728 2.75042 2.24585 2.93664L6.70022 6.91802L2.26447 11.0707C2.06335 11.2607 2.05218 11.5772 2.24212 11.7821C2.34268 11.8864 2.47676 11.9422 2.61084 11.9422C2.73374 11.9422 2.85665 11.8975 2.95348 11.8081L7.45628 7.59586L8.67788 8.68711C8.77471 8.77277 8.89389 8.81374 9.01307 8.81374C9.13226 8.81374 9.25516 8.76904 9.34827 8.68338L10.6034 7.55861L15.0801 11.8119C15.1769 11.905 15.3036 11.9497 15.4265 11.9497C15.5606 11.9497 15.6909 11.8975 15.7915 11.7933C15.9814 11.5921 15.974 11.2718 15.7729 11.0819L11.352 6.8845Z" fill="#C4C4C4"/>
</svg>
