<svg width="22" height="22" viewBox="0 0 22 22" fill="none" xmlns="http://www.w3.org/2000/svg">
<g clip-path="url(#clip0)">
<path d="M12.4856 21.957H8.95562C8.366 21.957 7.88636 21.4783 7.88636 20.8899V12.9433H5.82689C5.23727 12.9433 4.75763 12.4645 4.75763 11.8762V8.47106C4.75763 7.88258 5.23727 7.40389 5.82689 7.40389H7.88636V5.69873C7.88636 4.00801 8.4183 2.56957 9.42449 1.53915C10.4352 0.504044 11.8477 -0.0429688 13.5093 -0.0429688L16.2014 -0.0386048C16.7901 -0.0375977 17.2689 0.441101 17.2689 1.02856V4.19012C17.2689 4.7786 16.7894 5.25729 16.1999 5.25729L14.3873 5.25797C13.8345 5.25797 13.6938 5.36858 13.6637 5.40248C13.6141 5.45871 13.555 5.61766 13.555 6.05658V7.40372H16.0637C16.2526 7.40372 16.4355 7.45021 16.5928 7.53783C16.932 7.72699 17.1429 8.08467 17.1429 8.47122L17.1415 11.8763C17.1415 12.4645 16.6619 12.9432 16.0723 12.9432H13.555V20.8899C13.555 21.4783 13.0752 21.957 12.4856 21.957ZM9.17862 20.6673H12.2626V12.3659C12.2626 11.973 12.583 11.6534 12.9765 11.6534H15.8493L15.8505 8.69362H12.9764C12.5828 8.69362 12.2626 8.37404 12.2626 7.98111V6.05658C12.2626 5.5527 12.3139 4.97968 12.695 4.54898C13.1555 4.02832 13.8811 3.96823 14.387 3.96823L15.9766 3.96756V1.25079L13.5083 1.24677C10.838 1.24677 9.17862 2.95276 9.17862 5.69873V7.98111C9.17862 8.37387 8.85841 8.69362 8.46488 8.69362H6.04989V11.6534H8.46488C8.85841 11.6534 9.17862 11.973 9.17862 12.3659V20.6673ZM16.1989 1.25113H16.1991H16.1989Z" fill="#7B7B7B"/>
</g>
<defs>
<clipPath id="clip0">
<rect width="22" height="22" fill="white"/>
</clipPath>
</defs>
</svg>
