<svg width="20" height="20" viewBox="0 0 20 20" fill="none" xmlns="http://www.w3.org/2000/svg">
<path d="M14.375 0H5.625C4.58984 0.00106812 3.75107 0.839844 3.75 1.875V18.125C3.75107 19.1602 4.58984 19.9989 5.625 20H14.375C15.4102 19.9989 16.2489 19.1602 16.25 18.125V1.875C16.2489 0.839844 15.4102 0.00106812 14.375 0ZM15 18.125C15 18.4702 14.7202 18.75 14.375 18.75H5.625C5.27985 18.75 5 18.4702 5 18.125V1.875C5 1.52985 5.27985 1.25 5.625 1.25H14.375C14.7202 1.25 15 1.52985 15 1.875V18.125Z" fill="#C4C4C4"/>
<path d="M9.55945 16.4343C9.36139 16.6342 9.32172 16.9421 9.46286 17.1856C9.60416 17.4291 9.89102 17.5477 10.1629 17.4751C10.4348 17.4023 10.6242 17.1565 10.6251 16.8749C10.6244 16.7085 10.5581 16.5492 10.4408 16.4312C10.1924 16.1991 9.80634 16.2005 9.55945 16.4343Z" fill="#C4C4C4"/>
</svg>
