<svg width="70" height="70" viewBox="0 0 70 70" fill="none" xmlns="http://www.w3.org/2000/svg">
<g clip-path="url(#clip0)">
<path d="M23.3336 17.5H5.83362C5.83362 11.0573 11.06 5.83447 17.5 5.83447V0C7.83826 0 0 7.83467 0 17.5V40.8328C0 44.0405 2.62585 46.6672 5.83362 46.6672H23.3336C26.5405 46.6672 29.1664 44.0405 29.1664 40.8328V23.3328C29.1664 20.125 26.5405 17.5 23.3336 17.5ZM23.3336 40.8328H5.83362V23.3328H23.3336V40.8328Z" fill="#656565"/>
<path d="M52.5004 23.3335V29.168C58.9403 29.168 64.1667 34.3899 64.1667 40.8326H46.6667C43.4598 40.8326 40.834 43.4594 40.834 46.6671V64.1671C40.834 67.3732 43.4598 69.9999 46.6667 69.9999H64.1667C67.3745 69.9999 70.0004 67.3732 70.0004 64.1671V40.8326C70.0004 31.1673 62.1621 23.3335 52.5004 23.3335ZM64.1667 64.1671H46.6667V46.6671H64.1667V64.1671Z" fill="#656565"/>
</g>
<defs>
<clipPath id="clip0">
<rect width="70" height="70" fill="white"/>
</clipPath>
</defs>
</svg>
